<?xml version="1.0" encoding="UTF-8"?>
<svg version="1.1" xmlns="http://www.w3.org/2000/svg" width="500" height="500">
<path d="M0 0 C5.07151387 4.24804641 9.83986305 8.68147415 14.5 13.375 C15.16580078 14.04273437 15.83160156 14.71046875 16.51757812 15.3984375 C20.24312518 19.15701897 23.78295267 23.00431008 27.23461914 27.01611328 C29.00500624 29.00562588 30.84498259 30.87765014 32.74609375 32.7421875 C33.431875 33.42023438 34.11765625 34.09828125 34.82421875 34.796875 C36.21933383 36.16878114 37.61899792 37.53607851 39.0234375 38.8984375 C39.66410156 39.5275 40.30476563 40.1565625 40.96484375 40.8046875 C41.5487085 41.37171387 42.13257324 41.93874023 42.73413086 42.52294922 C44 44 44 44 44 46 C44.99 46.33 45.98 46.66 47 47 C47 47.66 47 48.32 47 49 C47.66 49 48.32 49 49 49 C50.39257812 50.41601562 50.39257812 50.41601562 52.03125 52.40625 C56.25973641 57.37887998 60.85040576 61.92385907 65.5 66.5 C74.59984778 75.45609031 74.59984778 75.45609031 78.31640625 79.8203125 C81.35969411 83.36742078 84.61305335 86.67559314 87.93359375 89.9609375 C88.46066925 90.48250427 88.98774475 91.00407104 89.53079224 91.54144287 C91.72688579 93.70978608 93.92669206 95.874283 96.13061523 98.03466797 C97.75674919 99.63078899 99.37675895 101.23292323 100.99609375 102.8359375 C101.49910507 103.3254892 102.00211639 103.81504089 102.52037048 104.31942749 C103.71861993 105.50883537 104.86483363 106.75024396 106 108 C106 108.66 106 109.32 106 110 C106.66 110 107.32 110 108 110 C109.30688477 111.33251953 109.30688477 111.33251953 110.87890625 113.2578125 C113.99629014 116.92560823 117.2889369 120.36447847 120.71484375 123.7421875 C121.21915924 124.24083313 121.72347473 124.73947876 122.24307251 125.25323486 C124.34388848 127.32700525 126.44887111 129.39645732 128.55786133 131.46191406 C130.11449651 132.98853669 131.66500464 134.52117047 133.21484375 136.0546875 C134.13386475 136.95687012 135.05288574 137.85905273 135.99975586 138.78857422 C138 141 138 141 138 143 C138.66 143 139.32 143 140 143 C141.39477539 144.42041016 141.39477539 144.42041016 143.03515625 146.4140625 C147.98450373 152.23727714 153.47360524 157.48733948 158.94335938 162.81640625 C159.72388672 163.58597656 160.50441406 164.35554687 161.30859375 165.1484375 C162.01814209 165.84114746 162.72769043 166.53385742 163.45874023 167.24755859 C165 169 165 169 165 171 C165.66 171 166.32 171 167 171 C168.30688477 172.33251953 168.30688477 172.33251953 169.87890625 174.2578125 C172.99629014 177.92560823 176.2889369 181.36447847 179.71484375 184.7421875 C180.21915924 185.24083313 180.72347473 185.73947876 181.24307251 186.25323486 C183.34388848 188.32700525 185.44887111 190.39645732 187.55786133 192.46191406 C189.11449651 193.98853669 190.66500464 195.52117047 192.21484375 197.0546875 C193.13386475 197.95687012 194.05288574 198.85905273 194.99975586 199.78857422 C197 202 197 202 197 204 C197.66 204 198.32 204 199 204 C200.39477539 205.42041016 200.39477539 205.42041016 202.03515625 207.4140625 C206.98450373 213.23727714 212.47360524 218.48733948 217.94335938 223.81640625 C218.72388672 224.58597656 219.50441406 225.35554687 220.30859375 226.1484375 C221.01814209 226.84114746 221.72769043 227.53385742 222.45874023 228.24755859 C224 230 224 230 224 232 C224.99 232.33 225.98 232.66 227 233 C228.42211914 234.44775391 228.42211914 234.44775391 229.97265625 236.3515625 C232.99108222 239.91077987 236.17362771 243.24973994 239.49609375 246.5234375 C239.97833405 247.00000793 240.46057434 247.47657837 240.95742798 247.96759033 C242.96253686 249.94566637 244.97183225 251.91939638 246.98510742 253.88916016 C248.47224382 255.34628443 249.95325005 256.80941757 251.43359375 258.2734375 C252.31072021 259.13372559 253.18784668 259.99401367 254.09155273 260.88037109 C256 263 256 263 256 265 C256.66 265 257.32 265 258 265 C259.28930664 266.31494141 259.28930664 266.31494141 260.84765625 268.2265625 C264.04705373 271.9908523 267.42004287 275.49477999 270.93359375 278.9609375 C271.460065 279.48173889 271.98653625 280.00254028 272.52896118 280.53912354 C274.72540405 282.7085061 276.92599319 284.87359794 279.13061523 287.03466797 C280.75674919 288.63078899 282.37675895 290.23292323 283.99609375 291.8359375 C284.49910507 292.3254892 285.00211639 292.81504089 285.52037048 293.31942749 C286.71861993 294.50883537 287.86483363 295.75024396 289 297 C289 297.66 289 298.32 289 299 C289.66 299 290.32 299 291 299 C292.35961914 300.38525391 292.35961914 300.38525391 293.97265625 302.3515625 C299.33095039 308.65592828 305.31872226 314.32814376 311.23242188 320.10546875 C312.10318359 320.96527344 312.97394531 321.82507813 313.87109375 322.7109375 C315.06109985 323.87568604 315.06109985 323.87568604 316.27514648 325.06396484 C318 327 318 327 318 329 C318.66 329 319.32 329 320 329 C321.7265625 330.71484375 321.7265625 330.71484375 323.625 332.9375 C324.57246094 334.03384766 324.57246094 334.03384766 325.5390625 335.15234375 C327 337 327 337 327 338 C311.90097242 338.23404068 296.80202865 338.41015623 281.70159245 338.51812172 C274.68935931 338.56959515 267.67825582 338.63971206 260.66674805 338.75439453 C253.89745364 338.8650621 247.12933223 338.92287688 240.35918999 338.94877243 C237.77910349 338.96722095 235.19907971 339.00324866 232.61949348 339.05730057 C211.29257583 339.48632264 211.29257583 339.48632264 206.46556091 335.80828857 C204.18807612 333.29997733 202.60433421 330.96683535 201 328 C199.58797488 326.39234444 199.58797488 326.39234444 198.15234375 325.125 C197.42144531 324.42375 196.69054687 323.7225 195.9375 323 C194.80634766 321.9171875 194.80634766 321.9171875 193.65234375 320.8125 C192 319 192 319 192 317 C191.34 317 190.68 317 190 317 C188.58984375 315.56640625 188.58984375 315.56640625 186.9375 313.5625 C183.42929345 309.41038212 179.64549595 305.64192767 175.72265625 301.8828125 C174 300 174 300 174 298 C173.34 298 172.68 298 172 298 C170.625 296.6015625 170.625 296.6015625 169 294.625 C166.13954645 291.25204852 163.15130339 288.10326523 160 285 C156.42280493 281.46596868 153.06254225 277.84634149 149.8046875 274.01953125 C146.93850965 270.81214175 143.82716681 267.8577525 140.72265625 264.8828125 C139 263 139 263 139 261 C138.34 261 137.68 261 137 261 C135.58984375 259.56640625 135.58984375 259.56640625 133.9375 257.5625 C131.24825006 254.39242783 128.46486623 251.41418475 125.5 248.5 C122.73439592 245.77170593 120.08712969 243.01483166 117.5625 240.0625 C114.84380752 236.8896408 111.97248325 233.93661618 109 231 C106.06881809 228.10408042 103.23596826 225.19757429 100.5625 222.0625 C97.69827665 218.71074927 94.63666284 215.59443244 91.5 212.5 C87.75969662 208.81005412 84.2176065 205.02496302 80.80859375 201.02734375 C77.8259411 197.6839383 74.59643308 194.5892363 71.41015625 191.44140625 C68.73957273 188.73619604 66.26743836 185.91237975 63.8046875 183.01953125 C60.93850965 179.81214175 57.82716681 176.8577525 54.72265625 173.8828125 C53 172 53 172 53 170 C52.34 170 51.68 170 51 170 C49.625 168.6015625 49.625 168.6015625 48 166.625 C45.13954645 163.25204852 42.15130339 160.10326523 39 157 C35.42280493 153.46596868 32.06254225 149.84634149 28.8046875 146.01953125 C25.93850965 142.81214175 22.82716681 139.8577525 19.72265625 136.8828125 C18 135 18 135 18 133 C17.34 133 16.68 133 16 133 C14.58984375 131.56640625 14.58984375 131.56640625 12.9375 129.5625 C9.44267885 125.43493228 5.69520223 121.65262047 1.8203125 117.8828125 C-0.94370301 115.02389517 -1.12522748 113.34312281 -1.12698364 109.4763031 C-1.12980347 108.52419952 -1.13262329 107.57209595 -1.13552856 106.59114075 C-1.13350433 105.54326889 -1.1314801 104.49539703 -1.12939453 103.41577148 C-1.13114685 102.31493225 -1.13289917 101.21409302 -1.13470459 100.07989502 C-1.13911995 96.42694541 -1.1361864 92.77404388 -1.1328125 89.12109375 C-1.13348558 86.59285981 -1.13445564 84.06462593 -1.13571167 81.53639221 C-1.13718818 76.23266933 -1.13513018 70.92896382 -1.13037109 65.62524414 C-1.12492592 59.48586457 -1.1266935 53.3465182 -1.1321975 47.20713943 C-1.13727411 41.30927912 -1.13674729 35.41142916 -1.13381577 29.51356697 C-1.13314631 26.99962421 -1.13397556 24.4856806 -1.13629532 21.97173882 C-1.13882017 18.46608066 -1.13498374 14.96048728 -1.12939453 11.45483398 C-1.13141876 10.4049379 -1.13344299 9.35504181 -1.13552856 8.27333069 C-1.13270874 7.32404694 -1.12988892 6.37476318 -1.12698364 5.39671326 C-1.12660662 4.56693183 -1.12622959 3.7371504 -1.12584114 2.88222408 C-1 1 -1 1 0 0 Z " fill="#048003" transform="translate(4,80)"/>
<path d="M0 0 C1.12237693 0.95720981 2.24407198 1.9152192 3.36547852 2.87356567 C3.99019547 3.4069713 4.61491241 3.94037693 5.25856018 4.48994637 C7.22425548 6.19445851 9.09610035 7.9668135 10.9375 9.8046875 C11.60523438 10.47113281 12.27296875 11.13757813 12.9609375 11.82421875 C13.63382813 12.50097656 14.30671875 13.17773438 15 13.875 C15.67289063 14.54402344 16.34578125 15.21304688 17.0390625 15.90234375 C20.27938472 19.14892142 23.41731162 22.43391066 26.40625 25.9140625 C30.52645999 30.68944194 35.00711999 35.07809756 39.5 39.5 C48.60028962 48.45652517 48.60028962 48.45652517 52.28515625 52.7890625 C55.40855925 56.42954909 58.74562633 59.80766425 62.15234375 63.1796875 C62.70157501 63.72341003 63.25080627 64.26713257 63.81668091 64.82733154 C66.10840068 67.09128823 68.40381467 69.35142318 70.70336914 71.60742188 C72.39900186 73.2730413 74.08851301 74.94467587 75.77734375 76.6171875 C76.30222885 77.12861298 76.82711395 77.64003845 77.36790466 78.16696167 C78.61695159 79.40717829 79.81402517 80.69933895 81 82 C81 82.66 81 83.32 81 84 C81.66 84 82.32 84 83 84 C84.32226562 85.34570312 84.32226562 85.34570312 85.90625 87.28125 C88.94611596 90.85608202 92.13841825 94.22838144 95.46875 97.53125 C95.95649902 98.0156958 96.44424805 98.5001416 96.94677734 98.99926758 C98.46256197 100.50150522 99.98082544 102.00119101 101.5 103.5 C107.2598896 109.18267436 112.96051637 114.84116562 118.22070312 120.99804688 C121.94604088 125.18956301 126.00664197 129.06624433 130 133 C135.27054566 138.1918808 140.41429857 143.39082714 145.23046875 149.0078125 C148.63988268 152.84622553 152.34063314 156.40203192 156 160 C164.56695546 168.42321459 164.56695546 168.42321459 168.375 172.875 C172.95371913 178.20277226 178.00137195 183.07172797 183 188 C193.65876168 198.50873889 193.65876168 198.50873889 197.34375 202.84375 C202.68013538 209.08223862 208.66661848 214.73232028 214.5 220.5 C227.99155044 233.83959412 227.99155044 233.83959412 233.25976562 240.03710938 C237.12294944 244.3945726 241.35481328 248.41344393 245.5 252.5 C255.66442326 262.5206549 255.66442326 262.5206549 259.21875 266.71875 C265.05326452 273.53142398 271.63035675 279.69441925 278 286 C293.08599947 300.93427246 293.08599947 300.93427246 298.21923828 307.00097656 C300.61255045 309.6876286 303.1577624 312.21314155 305.71484375 314.7421875 C306.2202066 315.24204163 306.72556946 315.74189575 307.24624634 316.25689697 C309.34627474 318.3291706 311.45002258 320.39758502 313.55786133 322.46191406 C315.11449651 323.98853669 316.66500464 325.52117047 318.21484375 327.0546875 C319.13386475 327.95687012 320.05288574 328.85905273 320.99975586 329.78857422 C323 332 323 332 323 334 C323.66 334 324.32 334 325 334 C325.66 335.32 326.32 336.64 327 338 C312.11812782 338.32833464 297.23653795 338.57454122 282.35180473 338.72537041 C275.4388649 338.79729559 268.52818633 338.89517461 261.61669922 339.05615234 C254.93795146 339.21163392 248.2620283 339.29212773 241.5813942 339.3282814 C239.04153751 339.35402003 236.50179964 339.40428627 233.96294785 339.48022079 C211.99515355 340.11072906 211.99515355 340.11072906 204.18297005 332.99312019 C197 325.42584359 197 325.42584359 197 322 C196.34 322 195.68 322 195 322 C193.5546875 320.53125 193.5546875 320.53125 191.875 318.5 C189.35742098 315.53322639 186.77831024 312.72425751 184 310 C181.48238304 307.52074673 179.09909278 305.00559816 176.8125 302.3125 C173.5557002 298.51664368 170.05388438 295.01376716 166.5 291.5 C162.38890782 287.43526263 158.43233978 283.33362644 154.69921875 278.9140625 C151.87713948 275.73516861 148.79047723 272.82259421 145.72265625 269.8828125 C144 268 144 268 144 266 C143.34 266 142.68 266 142 266 C140.58984375 264.56640625 140.58984375 264.56640625 138.9375 262.5625 C136.24825006 259.39242783 133.46486623 256.41418475 130.5 253.5 C127.73439592 250.77170593 125.08712969 248.01483166 122.5625 245.0625 C119.84380752 241.8896408 116.97248325 238.93661618 114 236 C111.06881809 233.10408042 108.23596826 230.19757429 105.5625 227.0625 C102.69827665 223.71074927 99.63666284 220.59443244 96.5 217.5 C92.76818435 213.81842758 89.22843519 210.04730902 85.8359375 206.05078125 C82.71270365 202.56206259 79.31339867 199.34792182 75.94140625 196.1015625 C74 194 74 194 74 192 C73.34 192 72.68 192 72 192 C70.51953125 190.49609375 70.51953125 190.49609375 68.8125 188.4375 C65.81322507 184.89003826 62.66004868 181.63477128 59.28515625 178.4453125 C58 177 58 177 58 175 C57.34 175 56.68 175 56 175 C54.625 173.6015625 54.625 173.6015625 53 171.625 C50.13954645 168.25204852 47.15130339 165.10326523 44 162 C40.42280493 158.46596868 37.06254225 154.84634149 33.8046875 151.01953125 C30.93850965 147.81214175 27.82716681 144.8577525 24.72265625 141.8828125 C23 140 23 140 23 138 C22.34 138 21.68 138 21 138 C19.625 136.6015625 19.625 136.6015625 18 134.625 C14.33688354 130.30144745 10.38802672 126.34832841 6.33203125 122.39453125 C5.17767578 121.20923828 5.17767578 121.20923828 4 120 C3.3012677 119.35505081 2.6025354 118.71010162 1.88262939 118.04560852 C-0.9626946 113.44260858 -0.52630617 109.18451533 -0.45410156 103.87573242 C-0.45468567 102.75334167 -0.45526978 101.63095093 -0.45587158 100.47454834 C-0.45308681 96.76787295 -0.42197451 93.06200352 -0.390625 89.35546875 C-0.38316405 86.78429097 -0.37747043 84.2131075 -0.37347412 81.641922 C-0.3597666 75.5680977 -0.32824749 69.49460558 -0.28807616 63.42090636 C-0.24332607 56.50439699 -0.22136334 49.58787363 -0.20129442 42.67125547 C-0.15951356 28.44734868 -0.08918181 14.22368461 0 0 Z " fill="#F90201" transform="translate(171,80)"/>
<path d="M0 0 C3.12610718 1.49078774 5.30195297 3.03102949 7.75 5.5 C8.67039062 6.41265625 8.67039062 6.41265625 9.609375 7.34375 C11 9 11 9 11 11 C11.99 11.33 12.98 11.66 14 12 C15.33203125 13.35546875 15.33203125 13.35546875 16.8125 15.1875 C21.02306572 20.19096445 25.68084431 24.70790698 30.3762207 29.25073242 C30.97265381 29.8357251 31.56908691 30.42071777 32.18359375 31.0234375 C32.72556396 31.54856934 33.26753418 32.07370117 33.82592773 32.61474609 C35 34 35 34 35 36 C35.66 36 36.32 36 37 36 C38.28930664 37.31494141 38.28930664 37.31494141 39.84765625 39.2265625 C43.04705373 42.9908523 46.42004287 46.49477999 49.93359375 49.9609375 C50.460065 50.48173889 50.98653625 51.00254028 51.52896118 51.53912354 C53.72540405 53.7085061 55.92599319 55.87359794 58.13061523 58.03466797 C59.75674919 59.63078899 61.37675895 61.23292323 62.99609375 62.8359375 C63.49910507 63.3254892 64.00211639 63.81504089 64.52037048 64.31942749 C65.71861993 65.50883537 66.86483363 66.75024396 68 68 C68 68.66 68 69.32 68 70 C68.66 70 69.32 70 70 70 C71.35961914 71.38525391 71.35961914 71.38525391 72.97265625 73.3515625 C78.33095039 79.65592828 84.31872226 85.32814376 90.23242188 91.10546875 C91.10318359 91.96527344 91.97394531 92.82507813 92.87109375 93.7109375 C93.66443115 94.48743652 94.45776855 95.26393555 95.27514648 96.06396484 C97 98 97 98 97 100 C97.66 100 98.32 100 99 100 C100.41015625 101.43359375 100.41015625 101.43359375 102.0625 103.4375 C106.12974522 108.22051302 110.5254604 112.60053657 115 117 C119.85436843 121.7729193 124.64585326 126.50722177 128.93632507 131.80168152 C130.96274015 134.116767 130.96274015 134.116767 133.7224884 135.87153625 C138.08779096 139.17052337 141.31645205 142.12251641 142.61672592 147.59618759 C143.58359196 155.58854143 143.2601002 163.63717381 143.07421875 171.66796875 C143.05368107 174.27538257 143.03803307 176.88283908 143.02705383 179.49031067 C142.99302678 185.62857939 142.90299407 191.76466196 142.79220945 197.90197307 C142.66873851 204.89573856 142.60864952 211.88961525 142.55355966 218.88420141 C142.43895265 233.2573024 142.24580085 247.62857331 142 262 C139.01440849 260.5680465 136.913942 259.16148902 134.57421875 256.8046875 C133.94620361 256.1753833 133.31818848 255.5460791 132.67114258 254.89770508 C132.01654053 254.2302124 131.36193848 253.56271973 130.6875 252.875 C130.01033936 252.19139404 129.33317871 251.50778809 128.63549805 250.8034668 C124.87852569 246.98832431 121.25290613 243.11391192 117.80078125 239.01953125 C114.81652529 235.67276263 111.58850148 232.56911769 108.39941406 229.41894531 C105.67539112 226.71539092 103.04634782 223.99232549 100.5625 221.0625 C96.87456749 216.72215683 92.80905457 212.7830992 88.76245117 208.78198242 C85.27613511 205.31981052 81.98360118 201.77170886 78.8046875 198.0234375 C76.02214671 194.90361904 73.02315975 192.00266307 70.04858398 189.06811523 C66.79966524 185.84601474 63.77541079 182.50641697 60.80859375 179.02734375 C58.63041508 176.58571366 56.32751992 174.29951968 54 172 C51.06881809 169.10408042 48.23596826 166.19757429 45.5625 163.0625 C42.69827645 159.71074904 39.63665907 156.59443583 36.5 153.5 C32.7815401 149.8315278 29.26331808 146.06850774 25.875 142.09375 C23.51653632 139.46013223 21.01535471 136.98194072 18.5 134.5 C14.11657635 130.16926351 9.9775997 125.70488091 6 121 C5.51901037 120.5593518 5.03802074 120.11870359 4.54245567 119.66470242 C0.14564723 115.32018944 -0.69457741 111.99593892 -0.746521 105.89447021 C-0.72494934 104.85365295 -0.70337769 103.81283569 -0.68115234 102.74047852 C-0.6820285 101.62754929 -0.68290466 100.51462006 -0.68380737 99.3679657 C-0.67964076 95.70422186 -0.63302775 92.04232865 -0.5859375 88.37890625 C-0.57474219 85.8330129 -0.56620359 83.28710659 -0.56021118 80.74119568 C-0.53967494 74.73451234 -0.49243154 68.72861842 -0.43211424 62.72225088 C-0.36491023 55.88071612 -0.33202549 49.03914886 -0.30194163 42.19736588 C-0.23932697 28.13121272 -0.13387935 14.06564256 0 0 Z " fill="#FC0000" transform="translate(338,80)"/>
<path d="M0 0 C0.91072266 0.94552734 0.91072266 0.94552734 1.83984375 1.91015625 C3.91505884 4.09540743 3.91505884 4.09540743 6.5625 5.4375 C9.46501569 7.29808698 10.25479779 9.05150433 12 12 C13.29309192 13.6163649 14.62737903 15.20060209 16 16.75 C16.680625 17.52859375 17.36125 18.3071875 18.0625 19.109375 C19.94918365 21.22541051 19.94918365 21.22541051 23 22 C24.4375 23.42578125 24.4375 23.42578125 26 25.3125 C29.58694046 29.54952562 33.31338916 33.63301947 37.09179688 37.69848633 C45 46.25954291 45 46.25954291 45 49 C46.32 49.66 47.64 50.32 49 51 C49 51.66 49 52.32 49 53 C50.3921875 53.0928125 50.3921875 53.0928125 51.8125 53.1875 C55 54 55 54 56.375 56.125 C56.91125 57.07375 57.4475 58.0225 58 59 C60.05395734 60.90636759 62.1809508 62.68217804 64.35546875 64.44921875 C64.89816406 64.96097656 65.44085938 65.47273438 66 66 C66 66.66 66 67.32 66 68 C66.66 68 67.32 68 68 68 C68 68.66 68 69.32 68 70 C68.66 70 69.32 70 70 70 C71.01351664 71.65848177 72.01120795 73.32665961 73 75 C73.721875 75.721875 74.44375 76.44375 75.1875 77.1875 C75.785625 77.785625 76.38375 78.38375 77 79 C77 79.66 77 80.32 77 81 C77.57621094 81.25136719 78.15242188 81.50273437 78.74609375 81.76171875 C81.29043002 83.15956034 83.01975392 84.75401021 85.0625 86.8125 C86.06990234 87.81216797 86.06990234 87.81216797 87.09765625 88.83203125 C89 91 89 91 90.4375 93.4140625 C92.28178237 96.46634983 94.51068351 98.97472971 96.9375 101.5625 C97.43604492 102.10116699 97.93458984 102.63983398 98.44824219 103.19482422 C101.96124937 106.94693119 105.57898444 110.58202984 109.23828125 114.19140625 C110.14650635 115.08851318 111.05473145 115.98562012 111.99047852 116.90991211 C113.81841965 118.70841988 115.65348057 120.49972214 117.49584961 122.28344727 C118.33768799 123.11030029 119.17952637 123.93715332 120.046875 124.7890625 C120.80838867 125.52850098 121.56990234 126.26793945 122.35449219 127.02978516 C124 129 124 129 124 132 C124.66 132 125.32 132 126 132 C126 132.66 126 133.32 126 134 C126.66 134 127.32 134 128 134 C128 134.66 128 135.32 128 136 C128.66 136 129.32 136 130 136 C131.3046875 137.36328125 131.3046875 137.36328125 132.875 139.3125 C136.00184187 143.00845326 139.39762428 146.27717425 143 149.5 C146.98307674 153.07830738 150.65467751 156.73487241 154.09375 160.83984375 C156.60684091 163.68767013 159.2968619 166.33366461 162 169 C166.02411008 172.97381646 169.86446894 177.02314664 173.55078125 181.31640625 C177.4611948 186.00174792 177.4611948 186.00174792 182.625 189 C185 190 185 190 186.1640625 192.07421875 C188.78262584 196.24720585 192.2265219 199.39511202 195.75 202.8125 C200.52827103 207.47042278 205.11973637 212.18338673 209.47265625 217.2434082 C211.27368019 219.31475846 213.16603889 221.26542309 215.125 223.1875 C216.13240234 224.17943359 216.13240234 224.17943359 217.16015625 225.19140625 C218.07087891 226.08666016 218.07087891 226.08666016 219 227 C219.845625 227.86625 220.69125 228.7325 221.5625 229.625 C224.14012679 232.1365338 226.84692601 234.4072174 229.64453125 236.66796875 C230.09183594 237.10753906 230.53914062 237.54710937 231 238 C231 238.66 231 239.32 231 240 C231.66 240 232.32 240 233 240 C233 240.66 233 241.32 233 242 C233.66 242 234.32 242 235 242 C236.01729716 243.65616553 237.01437414 245.32479272 238 247 C239.25528917 248.38756411 240.56031897 249.73142127 241.90625 251.03125 C242.65003906 251.75957031 243.39382813 252.48789062 244.16015625 253.23828125 C245.31837891 254.35783203 245.31837891 254.35783203 246.5 255.5 C248.03598517 256.98470019 249.56740114 258.47414496 251.09375 259.96875 C251.77115234 260.62294922 252.44855469 261.27714844 253.14648438 261.95117188 C255.13867069 264.15328298 256.49998738 266.44470859 258 269 C259.86481118 270.97545845 261.72897716 272.87487233 263.6875 274.75 C265.48009816 276.48156392 267.24772533 278.22690033 269 280 C269 280.33 269 280.66 269 281 C261.68094925 281.32713979 254.3635175 281.57446387 247.03858757 281.72537041 C243.63520738 281.79788139 240.2368899 281.8958076 236.83642578 282.05615234 C211.80364381 283.15012996 211.80364381 283.15012996 203.95388794 276.02688599 C197 268.55559047 197 268.55559047 197 265 C196.34 265 195.68 265 195 265 C193.5546875 263.53125 193.5546875 263.53125 191.875 261.5 C189.35742098 258.53322639 186.77831024 255.72425751 184 253 C181.48238304 250.52074673 179.09909278 248.00559816 176.8125 245.3125 C173.5557002 241.51664368 170.05388438 238.01376716 166.5 234.5 C162.38890782 230.43526263 158.43233978 226.33362644 154.69921875 221.9140625 C151.87713948 218.73516861 148.79047723 215.82259421 145.72265625 212.8828125 C144 211 144 211 144 209 C143.34 209 142.68 209 142 209 C140.58984375 207.56640625 140.58984375 207.56640625 138.9375 205.5625 C136.24825006 202.39242783 133.46486623 199.41418475 130.5 196.5 C127.73439592 193.77170593 125.08712969 191.01483166 122.5625 188.0625 C119.84380752 184.8896408 116.97248325 181.93661618 114 179 C111.06881809 176.10408042 108.23596826 173.19757429 105.5625 170.0625 C102.69827665 166.71074927 99.63666284 163.59443244 96.5 160.5 C92.76818435 156.81842758 89.22843519 153.04730902 85.8359375 149.05078125 C82.71270365 145.56206259 79.31339867 142.34792182 75.94140625 139.1015625 C74 137 74 137 74 135 C73.34 135 72.68 135 72 135 C70.51953125 133.49609375 70.51953125 133.49609375 68.8125 131.4375 C65.81322507 127.89003826 62.66004868 124.63477128 59.28515625 121.4453125 C58 120 58 120 58 118 C57.34 118 56.68 118 56 118 C54.625 116.6015625 54.625 116.6015625 53 114.625 C50.13954645 111.25204852 47.15130339 108.10326523 44 105 C40.42280493 101.46596868 37.06254225 97.84634149 33.8046875 94.01953125 C30.93850965 90.81214175 27.82716681 87.8577525 24.72265625 84.8828125 C23 83 23 83 23 81 C22.34 81 21.68 81 21 81 C19.625 79.6015625 19.625 79.6015625 18 77.625 C14.33688354 73.30144745 10.38802672 69.34832841 6.33203125 65.39453125 C-0.50867529 58.37048919 -0.50867529 58.37048919 -0.45410156 52.1081543 C-0.45379944 50.94732834 -0.45349731 49.78650238 -0.45318604 48.59049988 C-0.42221832 46.72619072 -0.42221832 46.72619072 -0.390625 44.82421875 C-0.38496521 43.54392288 -0.37930542 42.26362701 -0.37347412 40.9445343 C-0.35825452 37.55272787 -0.31900634 34.16161452 -0.2746582 30.77008057 C-0.23362496 27.30449803 -0.21544605 23.8388027 -0.1953125 20.37304688 C-0.15122837 13.58173164 -0.08430178 6.79092864 0 0 Z " fill="#087E03" transform="translate(171,137)"/>
<path d="M0 0 C4.56842695 3.73780387 8.82168674 7.71240454 13 11.875 C13.4856543 12.35614258 13.97130859 12.83728516 14.47167969 13.33300781 C17.16203084 16.0341132 19.71348311 18.80564568 22.19140625 21.703125 C27.26466211 27.56117849 32.87393784 32.90359279 38.41235352 38.31640625 C39.82994803 39.70399001 41.24125905 41.09798418 42.65234375 42.4921875 C43.48757568 43.31058105 44.32280762 44.12897461 45.18334961 44.97216797 C47 47 47 47 47 49 C47.66 49 48.32 49 49 49 C50.35961914 50.38525391 50.35961914 50.38525391 51.97265625 52.3515625 C57.33095039 58.65592828 63.31872226 64.32814376 69.23242188 70.10546875 C70.10318359 70.96527344 70.97394531 71.82507813 71.87109375 72.7109375 C72.66443115 73.48743652 73.45776855 74.26393555 74.27514648 75.06396484 C76 77 76 77 76 79 C76.66 79 77.32 79 78 79 C79.34204102 80.36767578 79.34204102 80.36767578 80.94140625 82.3203125 C86.06281917 88.34597282 91.76160058 93.79380315 97.41235352 99.31640625 C98.82994803 100.70399001 100.24125905 102.09798418 101.65234375 103.4921875 C102.90519165 104.71977783 102.90519165 104.71977783 104.18334961 105.97216797 C106 108 106 108 106 110 C106.66 110 107.32 110 108 110 C109.21899414 111.24462891 109.21899414 111.24462891 110.72265625 113.1015625 C114.22627478 117.22378726 117.96431244 121.03617126 121.80859375 124.8359375 C122.42368805 125.44536194 123.03878235 126.05478638 123.67251587 126.68267822 C126.25146261 129.23451661 128.83448889 131.78215408 131.42163086 134.32568359 C133.32575984 136.19979838 135.22377397 138.07993322 137.12109375 139.9609375 C138.00685341 140.82650772 138.00685341 140.82650772 138.9105072 141.70956421 C140.31195732 143.10221271 141.66159278 144.54665957 143 146 C143 146.66 143 147.32 143 148 C143.66 148 144.32 148 145 148 C146.48046875 149.50390625 146.48046875 149.50390625 148.1875 151.5625 C151.18677493 155.10996174 154.33995132 158.36522872 157.71484375 161.5546875 C159 163 159 163 159 165 C143.97925745 165.14025964 128.95856571 165.24601461 113.93730736 165.31087303 C106.96237654 165.34179071 99.98785298 165.38393001 93.01318359 165.45263672 C86.28285749 165.51890473 79.55304196 165.55370111 72.82237625 165.56926346 C70.25388553 165.58035443 67.68541811 165.60201256 65.11710739 165.63438034 C61.52075818 165.6779039 57.92615982 165.68393535 54.32958984 165.68115234 C53.26647583 165.702724 52.20336182 165.72429565 51.10803223 165.746521 C46.17339224 165.70517053 42.96015956 165.59621457 39.29190063 162.08242798 C37 159 37 159 37 157 C36.34 157 35.68 157 35 157 C33.625 155.6015625 33.625 155.6015625 32 153.625 C29.13954645 150.25204852 26.15130339 147.10326523 23 144 C19.46541538 140.5079367 16.15531076 136.93032845 12.93359375 133.15234375 C9.97419671 129.85814624 6.81282079 126.77056272 3.64282227 123.67993164 C-0.92746694 119.19342704 -0.92746694 119.19342704 -1.12584114 115.92946529 C-1.12621817 115.06980947 -1.12659519 114.21015364 -1.12698364 113.32444763 C-1.12980347 112.33868744 -1.13262329 111.35292725 -1.13552856 110.33729553 C-1.13350433 109.25202072 -1.1314801 108.16674591 -1.12939453 107.04858398 C-1.13114685 105.90873047 -1.13289917 104.76887695 -1.13470459 103.59448242 C-1.13912033 99.81167089 -1.13618626 96.02890579 -1.1328125 92.24609375 C-1.13348557 89.62817882 -1.13445562 87.01026396 -1.13571167 84.39234924 C-1.13753213 78.90031426 -1.13513001 73.40829271 -1.13037109 67.91625977 C-1.124926 61.55875429 -1.12669341 55.20128087 -1.1321975 48.84377617 C-1.13727401 42.73661143 -1.13674732 36.62946096 -1.13381577 30.522295 C-1.13314629 27.91903746 -1.13397563 25.3157791 -1.13629532 22.71252251 C-1.13882007 19.08233308 -1.13498388 15.45220622 -1.12939453 11.82202148 C-1.13141876 10.73472244 -1.13344299 9.6474234 -1.13552856 8.5271759 C-1.13270874 7.54423553 -1.12988892 6.56129517 -1.12698364 5.54856873 C-1.1264181 4.25965052 -1.1264181 4.25965052 -1.12584114 2.94469357 C-1 1 -1 1 0 0 Z " fill="#048003" transform="translate(4,253)"/>
<path d="M0 0 C3.18086518 1.50946511 5.29869906 3.07941825 7.75 5.625 C8.67039062 6.57246094 8.67039062 6.57246094 9.609375 7.5390625 C10.29773438 8.26222656 10.29773438 8.26222656 11 9 C10.67 9.66 10.34 10.32 10 11 C8.68 9.68 7.36 8.36 6 7 C5.01 7.33 4.02 7.66 3 8 C2.67 42.65 2.34 77.3 2 113 C2.99 113.33 3.98 113.66 5 114 C5.144375 114.6084375 5.28875 115.216875 5.4375 115.84375 C6.20068652 118.76929831 7.64966443 119.65330777 10 121.5 C12.98094911 123.8421743 14.4634932 125.17738906 15 129 C15.99 129 16.98 129 18 129 C18 129.66 18 130.32 18 131 C18.99 131.33 19.98 131.66 21 132 C20.67 133.32 20.34 134.64 20 136 C15.07298519 131.20776675 10.46651712 126.22181542 6 121 C5.51447851 120.55481994 5.02895702 120.10963987 4.52872276 119.65096951 C0.13838585 115.31301212 -0.69465957 111.98628768 -0.746521 105.89447021 C-0.72494934 104.85365295 -0.70337769 103.81283569 -0.68115234 102.74047852 C-0.6820285 101.62754929 -0.68290466 100.51462006 -0.68380737 99.3679657 C-0.67964076 95.70422186 -0.63302775 92.04232865 -0.5859375 88.37890625 C-0.57474219 85.8330129 -0.56620359 83.28710659 -0.56021118 80.74119568 C-0.53967494 74.73451234 -0.49243154 68.72861842 -0.43211424 62.72225088 C-0.36491023 55.88071612 -0.33202549 49.03914886 -0.30194163 42.19736588 C-0.23932697 28.13121272 -0.13387935 14.06564256 0 0 Z " fill="#ED0203" transform="translate(338,80)"/>
<path d="M0 0 C1.14926266 0.95421808 2.29430541 1.91352045 3.4375 2.875 C4.07558594 3.40867187 4.71367187 3.94234375 5.37109375 4.4921875 C7 6 7 6 8 8 C4.38144425 7.37611108 3.8290723 6.8290723 1 4 C1 41.62 1 79.24 1 118 C0.34 118 -0.32 118 -1 118 C-1.02332961 102.76236936 -1.04097948 87.52473954 -1.05181217 72.28709507 C-1.056975 65.21246813 -1.06401744 58.13785226 -1.07543945 51.06323242 C-1.08644681 44.24221122 -1.09227618 37.42120156 -1.09487724 30.60017204 C-1.09673205 27.99133052 -1.1003537 25.38248967 -1.10573006 22.77365303 C-1.11293643 19.13367448 -1.11399111 15.49374425 -1.11352539 11.85375977 C-1.11712067 10.76331863 -1.12071594 9.6728775 -1.12442017 8.5493927 C-1.1230455 7.56356201 -1.12167084 6.57773132 -1.12025452 5.56202698 C-1.12117631 4.70015054 -1.1220981 3.8382741 -1.12304783 2.95028019 C-1 1 -1 1 0 0 Z " fill="#1E7E1D" transform="translate(4,253)"/>
<path d="M0 0 C0.99 0.99 1.98 1.98 3 3 C2.67 3.33 2.34 3.66 2 4 C1.89236325 5.4290161 1.8531936 6.86326126 1.84178162 8.29627991 C1.8319928 9.22321152 1.82220398 10.15014313 1.81211853 11.10516357 C1.80636307 12.13014954 1.8006076 13.1551355 1.79467773 14.21118164 C1.78477814 15.28422043 1.77487854 16.35725922 1.76467896 17.46281433 C1.73295626 21.02857212 1.70826412 24.59434325 1.68359375 28.16015625 C1.66303351 30.62495785 1.6420373 33.08975586 1.62062073 35.55455017 C1.56530395 42.05649915 1.51593718 48.55848046 1.46777344 55.06048584 C1.4181596 61.68944549 1.36190588 68.3183511 1.30664062 74.94726562 C1.19894163 87.9648032 1.09733369 100.98238101 1 114 C0.34 114 -0.32 114 -1 114 C-1.02332994 99.28390435 -1.04097964 84.56781115 -1.05181217 69.85170078 C-1.05697493 63.01921026 -1.06401723 56.18673121 -1.07543945 49.35424805 C-1.08644707 42.76664695 -1.09227623 36.17905469 -1.09487724 29.59144402 C-1.096732 27.07191721 -1.10035357 24.55239109 -1.10573006 22.03286934 C-1.11293676 18.51742235 -1.1139911 15.00202539 -1.11352539 11.48657227 C-1.11712067 10.43353409 -1.12071594 9.38049591 -1.12442017 8.29554749 C-1.12235817 6.86728638 -1.12235817 6.86728638 -1.12025452 5.41017151 C-1.12117631 4.57779244 -1.1220981 3.74541338 -1.12304783 2.88781071 C-1 1 -1 1 0 0 Z " fill="#1C701B" transform="translate(4,80)"/>
<path d="M0 0 C1.34313399 0.64669414 2.67391178 1.31903578 4 2 C4.86625 2.4125 5.7325 2.825 6.625 3.25 C9 5 9 5 11 11 C47.96 11.33 84.92 11.66 123 12 C122.01 9.03 122.01 9.03 121 6 C122.16959987 6.97566112 123.33561177 7.955625 124.5 8.9375 C125.1496875 9.48277344 125.799375 10.02804687 126.46875 10.58984375 C126.9740625 11.05519531 127.479375 11.52054687 128 12 C128 12.33 128 12.66 128 13 C112.90097242 13.23404068 97.80202865 13.41015623 82.70159245 13.51812172 C75.68935931 13.56959515 68.67825582 13.63971206 61.66674805 13.75439453 C54.89745364 13.8650621 48.12933223 13.92287688 41.35918999 13.94877243 C38.77910349 13.96722095 36.19907971 14.00324866 33.61949348 14.05730057 C12.31507324 14.48587007 12.31507324 14.48587007 7.4357605 10.81268311 C5.12483946 8.29467942 3.53245672 6.03928117 2 3 C1.34 2.01 0.68 1.02 0 0 Z " fill="#0F6A0F" transform="translate(203,405)"/>
<path d="M0 0 C10.24714829 8.57414449 10.24714829 8.57414449 14 13 C14 13.66 14 14.32 14 15 C-24.28 15 -62.56 15 -102 15 C-102.33 14.34 -102.66 13.68 -103 13 C-65.38 13.33 -27.76 13.66 11 14 C6.41618434 8.68460869 6.41618434 8.68460869 1.5625 3.625 C0 2 0 2 0 0 Z " fill="#0F6A0F" transform="translate(149,403)"/>
<path d="M0 0 C0.33 0 0.66 0 1 0 C1 38.61 1 77.22 1 117 C-3.53786224 114.73106888 -4.94678157 112.90133466 -8 109 C-6.68 109.33 -5.36 109.66 -4 110 C-4 110.66 -4 111.32 -4 112 C-3.01 112.33 -2.02 112.66 -1 113 C-0.67 75.71 -0.34 38.42 0 0 Z " fill="#C10E0C" transform="translate(479,225)"/>
<path d="M0 0 C3.49353838 1.74676919 5.13945763 2.91405215 7.75 5.625 C8.67039062 6.57246094 8.67039062 6.57246094 9.609375 7.5390625 C10.29773438 8.26222656 10.29773438 8.26222656 11 9 C10.67 9.66 10.34 10.32 10 11 C9.51789063 10.50628906 9.03578125 10.01257813 8.5390625 9.50390625 C7.90742188 8.86324219 7.27578125 8.22257812 6.625 7.5625 C5.99851562 6.92441406 5.37203125 6.28632812 4.7265625 5.62890625 C3.08276939 3.92117824 3.08276939 3.92117824 1 3 C1 39.63 1 76.26 1 114 C0.67 114 0.34 114 0 114 C0 76.38 0 38.76 0 0 Z " fill="#BC1214" transform="translate(338,80)"/>
<path d="M0 0 C0.99 0.99 1.98 1.98 3 3 C2.01 3 1.02 3 0 3 C0 40.95 0 78.9 0 118 C-0.33 118 -0.66 118 -1 118 C-1.02332961 102.76236936 -1.04097948 87.52473954 -1.05181217 72.28709507 C-1.056975 65.21246813 -1.06401744 58.13785226 -1.07543945 51.06323242 C-1.08644681 44.24221122 -1.09227618 37.42120156 -1.09487724 30.60017204 C-1.09673205 27.99133052 -1.1003537 25.38248967 -1.10573006 22.77365303 C-1.11293643 19.13367448 -1.11399111 15.49374425 -1.11352539 11.85375977 C-1.11712067 10.76331863 -1.12071594 9.6728775 -1.12442017 8.5493927 C-1.1230455 7.56356201 -1.12167084 6.57773132 -1.12025452 5.56202698 C-1.12117631 4.70015054 -1.1220981 3.8382741 -1.12304783 2.95028019 C-1 1 -1 1 0 0 Z " fill="#1A6219" transform="translate(4,253)"/>
<path d="M0 0 C5.77363568 4.80490486 11.12543893 9.9422194 16.4375 15.25 C17.26443359 16.0646875 18.09136719 16.879375 18.94335938 17.71875 C20.11415039 18.88664062 20.11415039 18.88664062 21.30859375 20.078125 C22.01814209 20.78356445 22.72769043 21.48900391 23.45874023 22.21582031 C25 24 25 24 25 26 C25.99 26.33 26.98 26.66 28 27 C29.61328125 28.6015625 29.61328125 28.6015625 31.3125 30.625 C31.91835937 31.33914063 32.52421875 32.05328125 33.1484375 32.7890625 C33.75945312 33.51867187 34.37046875 34.24828125 35 35 C36.14453013 36.33445216 37.29025017 37.66788527 38.4375 39 C39.283125 39.99 40.12875 40.98 41 42 C39.35 41.67 37.7 41.34 36 41 C36 40.34 36 39.68 36 39 C35.401875 38.773125 34.80375 38.54625 34.1875 38.3125 C31.40167272 36.64100363 30.62462768 34.7943596 29 32 C27.37446717 30.29319053 25.70884005 28.62339805 24 27 C23 26 22 25 21 24 C20.113125 23.154375 19.22625 22.30875 18.3125 21.4375 C16 19 16 19 16 17 C15.34 17 14.68 17 14 17 C12.76961983 15.57009872 11.54466992 14.13469972 10.36328125 12.6640625 C7.56082114 9.24329458 5.23655703 6.41218568 1 5 C0.67 3.35 0.34 1.7 0 0 Z " fill="#146B14" transform="translate(203,286)"/>
<path d="M0 0 C1.98 0.99 1.98 0.99 4 2 C4 2.66 4 3.32 4 4 C4.66 4 5.32 4 6 4 C6 4.66 6 5.32 6 6 C6.66 6 7.32 6 8 6 C8 6.66 8 7.32 8 8 C8.66 8 9.32 8 10 8 C10 8.66 10 9.32 10 10 C10.66 10 11.32 10 12 10 C12 10.66 12 11.32 12 12 C12.66 12 13.32 12 14 12 C14.391875 12.70125 14.78375 13.4025 15.1875 14.125 C18.05139744 18.66773387 21.86746827 22.28915609 27 24 C27.6875 26.0625 27.6875 26.0625 28 28 C28.99 28 29.98 28 31 28 C31.4125 28.9075 31.825 29.815 32.25 30.75 C33.89050718 33.79665618 35.44718361 35.71126806 38 38 C37.505 38.99 37.505 38.99 37 40 C28.34226121 31.51541598 28.34226121 31.51541598 24.9375 27.375 C22.19268333 24.06122974 19.06941882 21.38388854 15.734375 18.67578125 C14 17 14 17 12.953125 14.85546875 C12.08899804 12.64112906 12.08899804 12.64112906 9 12 C9 11.34 9 10.68 9 10 C8.34 10 7.68 10 7 10 C7 9.34 7 8.68 7 8 C6.34 8 5.68 8 5 8 C5 7.34 5 6.68 5 6 C4.34 6 3.68 6 3 6 C2.01 4.02 1.02 2.04 0 0 Z " fill="#7A4E0A" transform="translate(292,263)"/>
<path d="M0 0 C10 10 20 20 30 30 C29.01 30 28.02 30 27 30 C26.319375 29.2265625 26.319375 29.2265625 25.625 28.4375 C25.08875 27.963125 24.5525 27.48875 24 27 C21.4180583 27.36943762 21.4180583 27.36943762 19 28 C18.78085938 27.32453125 18.56171875 26.6490625 18.3359375 25.953125 C16.16272129 19.83985015 14.60450551 17.18437813 9 14 C9 13.01 9 12.02 9 11 C7.35 11 5.7 11 4 11 C3.34 8.69 2.68 6.38 2 4 C1.34 4 0.68 4 0 4 C0 2.68 0 1.36 0 0 Z " fill="#0E700D" transform="translate(170,251)"/>
<path d="M0 0 C0.91072266 0.94552734 0.91072266 0.94552734 1.83984375 1.91015625 C3.91505884 4.09540743 3.91505884 4.09540743 6.5625 5.4375 C9.43181629 7.27680531 10.37520964 9.04583572 12 12 C13.58245275 13.75149165 13.58245275 13.75149165 15 15 C14.67 15.66 14.34 16.32 14 17 C12.66070495 15.71451591 11.32871357 14.42141845 10 13.125 C9.2575 12.40570313 8.515 11.68640625 7.75 10.9453125 C6 9 6 9 6 7 C4.68 6.34 3.36 5.68 2 5 C1.97465905 12.18993376 1.95713692 19.37985601 1.94506836 26.56982422 C1.94003751 29.01611766 1.93321216 31.46240809 1.92456055 33.90869141 C1.91244048 37.42351016 1.90675921 40.93828918 1.90234375 44.453125 C1.89718246 45.5480426 1.89202118 46.64296021 1.88670349 47.77105713 C1.88662796 48.79181335 1.88655243 49.81256958 1.88647461 50.86425781 C1.884254 51.76138489 1.88203339 52.65851196 1.87974548 53.58282471 C1.99319884 55.86329333 2.35864041 57.81529132 3 60 C2.01 59.34 1.02 58.68 0 58 C-0.36076355 55.55758667 -0.36076355 55.55758667 -0.34057617 52.44873047 C-0.34034958 51.28767792 -0.34012299 50.12662537 -0.33988953 48.9303894 C-0.32440567 47.67203278 -0.30892181 46.41367615 -0.29296875 45.1171875 C-0.28872391 43.83264679 -0.28447906 42.54810608 -0.28010559 41.22463989 C-0.2686468 37.80827359 -0.23917143 34.39228944 -0.20599365 30.97607422 C-0.17531462 27.49061249 -0.16160494 24.00508906 -0.14648438 20.51953125 C-0.11430221 13.67953043 -0.06309376 6.83978356 0 0 Z " fill="#217020" transform="translate(171,137)"/>
<path d="M0 0 C1.08839774 0.88967344 2.17044608 1.78711574 3.25 2.6875 C3.85328125 3.18636719 4.4565625 3.68523437 5.078125 4.19921875 C7 6 7 6 11 11 C-8.14 11 -27.28 11 -47 11 C-47.33 10.34 -47.66 9.68 -48 9 C-30.84 9 -13.68 9 4 9 C2.74646003 5.86615008 1.53924548 2.96854486 0 0 Z " fill="#0D680E" transform="translate(429,407)"/>
<path d="M0 0 C5.97734909 4.95544138 11.46187935 10.31189552 16.9375 15.8125 C17.81212891 16.68326172 18.68675781 17.55402344 19.58789062 18.45117188 C20.41353516 19.27810547 21.23917969 20.10503906 22.08984375 20.95703125 C22.84128662 21.70960205 23.59272949 22.46217285 24.36694336 23.23754883 C26 25 26 25 26 26 C24.35 26 22.7 26 21 26 C20.6596875 25.13375 20.6596875 25.13375 20.3125 24.25 C18.67083893 21.43572387 16.56440947 19.97262267 14 18 C13.67 17.34 13.34 16.68 13 16 C12.01 15.67 11.02 15.34 10 15 C9.71125 14.2575 9.4225 13.515 9.125 12.75 C7.71761642 9.30972904 5.70857485 7.51038645 3 5 C1.1875 3.3125 1.1875 3.3125 0 2 C0 1.34 0 0.68 0 0 Z " fill="#CC0E0D" transform="translate(375,118)"/>
<path d="M0 0 C5.43733055 4.52991796 10.46458931 9.34294216 15.4375 14.375 C16.16904297 15.11105469 16.90058594 15.84710938 17.65429688 16.60546875 C19.43852723 18.40136074 21.22036124 20.19955985 23 22 C22.01 22.33 21.02 22.66 20 23 C19.59007813 22.50628906 19.18015625 22.01257813 18.7578125 21.50390625 C18.21898438 20.86324219 17.68015625 20.22257812 17.125 19.5625 C16.59132813 18.92441406 16.05765625 18.28632813 15.5078125 17.62890625 C14.0777243 15.89194996 14.0777243 15.89194996 12 15 C11.67 15.66 11.34 16.32 11 17 C7.10351201 13.60628466 7.10351201 13.60628466 6.5625 10.4375 C6.2840625 9.2309375 6.2840625 9.2309375 6 8 C5.175 7.505 4.35 7.01 3.5 6.5 C1 5 1 5 0.1875 2.3125 C0.0946875 1.1678125 0.0946875 1.1678125 0 0 Z " fill="#0A7C07" transform="translate(82,334)"/>
<path d="M0 0 C3.24900717 1.08300239 3.74706612 1.63159369 5.8125 4.1875 C10.02306572 9.19096445 14.68084431 13.70790698 19.3762207 18.25073242 C19.97265381 18.8357251 20.56908691 19.42071777 21.18359375 20.0234375 C21.72556396 20.54856934 22.26753418 21.07370117 22.82592773 21.61474609 C24 23 24 23 24 25 C24.66 25 25.32 25 26 25 C26 25.66 26 26.32 26 27 C24.1875 26.8125 24.1875 26.8125 22 26 C20.97862543 24.34634594 19.98387706 22.67623498 19 21 C15.69284219 17.24919907 12.61034512 14.05692321 8 12 C8 11.01 8 10.02 8 9 C6.35 9.33 4.7 9.66 3 10 C3.33 8.35 3.66 6.7 4 5 C2.68 4.34 1.36 3.68 0 3 C0 2.01 0 1.02 0 0 Z " fill="#CD0C11" transform="translate(349,91)"/>
<path d="M0 0 C2.56324611 1.23168969 4.75348126 2.51236726 7.125 4.125 C9.70713977 6.18208926 9.70713977 6.18208926 12 6 C11.9278125 6.7427417 11.855625 7.4854834 11.78125 8.25073242 C12.0581144 11.73038651 13.01392058 12.59931431 15.5 14.98828125 C16.221875 15.69404297 16.94375 16.39980469 17.6875 17.12695312 C18.450625 17.84818359 19.21375 18.56941406 20 19.3125 C20.763125 20.05306641 21.52625 20.79363281 22.3125 21.55664062 C24.19760032 23.38283156 26.09335569 25.19635759 28 27 C27.67 27.66 27.34 28.32 27 29 C24.11245963 26.16247032 21.23197154 23.31797568 18.35742188 20.46728516 C17.38172614 19.50155206 16.40423154 18.53763246 15.42480469 17.57568359 C9.78542097 12.03432598 4.46506093 6.5440683 0 0 Z " fill="#854B0B" transform="translate(260,230)"/>
<path d="M0 0 C3.11650396 1.50053894 6.13149298 3.06181958 9 5 C9.33 5.99 9.66 6.98 10 8 C11.32 7.67 12.64 7.34 14 7 C13.835 7.825 13.67 8.65 13.5 9.5 C14.27294847 14.91063926 18.02145679 17.50101334 22 21 C21.67 21.66 21.34 22.32 21 23 C4.48803828 6.73205742 4.48803828 6.73205742 0 0 Z " fill="#AB3308" transform="translate(330,303)"/>
<path d="M0 0 C1.485 0.99 1.485 0.99 3 2 C3 2.66 3 3.32 3 4 C3.66 4 4.32 4 5 4 C6.3046875 5.328125 6.3046875 5.328125 7.875 7.25 C12.89702718 13.17833782 18.47001718 18.55174107 24 24 C23.01 24.33 22.02 24.66 21 25 C20.67 24.34 20.34 23.68 20 23 C19.34 23.66 18.68 24.32 18 25 C18 23.35 18 21.7 18 20 C17.01 20 16.02 20 15 20 C14.67 19.01 14.34 18.02 14 17 C13.030625 16.360625 12.06125 15.72125 11.0625 15.0625 C7.97135425 12.98070797 7.41386652 12.2316949 6 9 C5.34 8.360625 4.68 7.72125 4 7.0625 C1.82536995 4.81991276 0.97926774 2.93780321 0 0 Z " fill="#157013" transform="translate(290,375)"/>
<path d="M0 0 C0.66 0 1.32 0 2 0 C3 3 3 3 2.0625 5.1875 C1.5365625 6.0846875 1.5365625 6.0846875 1 7 C2.65 7.33 4.3 7.66 6 8 C6 8.99 6 9.98 6 11 C6.99 11.66 7.98 12.32 9 13 C8.01 14.485 8.01 14.485 7 16 C2.71 11.71 -1.58 7.42 -6 3 C-4.68 2.67 -3.36 2.34 -2 2 C-1.34 1.34 -0.68 0.68 0 0 Z " fill="#D90A09" transform="translate(429,282)"/>
<path d="M0 0 C4.24846075 0.47205119 6.26819288 2.88877522 9 6 C9 6.66 9 7.32 9 8 C9.99 7.67 10.98 7.34 12 7 C13.0625 8.875 13.0625 8.875 14 11 C13.67 11.66 13.34 12.32 13 13 C13.99 13.33 14.98 13.66 16 14 C16 14.66 16 15.32 16 16 C17.32 16.33 18.64 16.66 20 17 C19.34 17.99 18.68 18.98 18 20 C11.54829329 13.69911241 5.35674253 7.27101388 0 0 Z " fill="#177316" transform="translate(80,275)"/>
<path d="M0 0 C2.97 0.495 2.97 0.495 6 1 C6 1.99 6 2.98 6 4 C7.98 4.66 9.96 5.32 12 6 C12 6.66 12 7.32 12 8 C12.7115625 8.6496875 12.7115625 8.6496875 13.4375 9.3125 C15.41383086 11.44693733 15.61663236 13.16307947 16 16 C10.35573231 11.31645873 4.9941954 6.3792354 0 1 C0 0.67 0 0.34 0 0 Z " fill="#147313" transform="translate(263,292)"/>
<path d="M0 0 C4.53665737 3.7301405 8.77941122 7.67053566 12.9375 11.8125 C13.43419189 12.30468018 13.93088379 12.79686035 14.44262695 13.30395508 C18 16.87624634 18 16.87624634 18 18 C16.35 18 14.7 18 13 18 C13.33 17.01 13.66 16.02 14 15 C11.525 14.01 11.525 14.01 9 13 C9 12.34 9 11.68 9 11 C8.01 11 7.02 11 6 11 C5.6596875 9.88625 5.6596875 9.88625 5.3125 8.75 C3.75592468 5.48860409 1.91481146 4.07105025 -1 2 C-0.67 1.34 -0.34 0.68 0 0 Z " fill="#D20C0D" transform="translate(343,258)"/>
<path d="M0 0 C2.97 0.495 2.97 0.495 6 1 C6 1.66 6 2.32 6 3 C6.66 3.33 7.32 3.66 8 4 C8.66666667 5.33333333 9.33333333 6.66666667 10 8 C10.53625 8.53625 11.0725 9.0725 11.625 9.625 C12.07875 10.07875 12.5325 10.5325 13 11 C13 11.66 13 12.32 13 13 C14.32 12.67 15.64 12.34 17 12 C16.67 13.32 16.34 14.64 16 16 C16.66 16 17.32 16 18 16 C17.67 16.99 17.34 17.98 17 19 C14.35037781 16.21190822 11.70595833 13.41893556 9.0625 10.625 C8.30775391 9.8309375 7.55300781 9.036875 6.77539062 8.21875 C6.05673828 7.45820313 5.33808594 6.69765625 4.59765625 5.9140625 C3.93258057 5.2123291 3.26750488 4.5105957 2.58227539 3.78759766 C1 2 1 2 0 0 Z " fill="#187115" transform="translate(62,256)"/>
<path d="M0 0 C3.88862987 1.26117725 5.89375599 2.45264167 8 6 C8 6.66 8 7.32 8 8 C8.99 8.33 9.98 8.66 11 9 C11 9.66 11 10.32 11 11 C11.66 11 12.32 11 13 11 C14.3671875 12.390625 14.3671875 12.390625 15.875 14.25 C18.1327034 16.97805828 20.444064 19.54236923 23 22 C22.67 22.66 22.34 23.32 22 24 C19.44972738 21.50865654 16.91147684 19.00538167 14.375 16.5 C13.66214844 15.80390625 12.94929687 15.1078125 12.21484375 14.390625 C7.66792792 9.885424 3.67680839 5.24099498 0 0 Z " fill="#196E1A" transform="translate(153,352)"/>
<path d="M0 0 C0.66 0 1.32 0 2 0 C3.55078125 1.57421875 3.55078125 1.57421875 5.3125 3.6875 C7.43644684 6.19802294 9.55501344 8.60823421 11.9375 10.875 C14 13 14 13 14 15 C14.99 15 15.98 15 17 15 C17 15.66 17 16.32 17 17 C17.99 17.33 18.98 17.66 20 18 C19.67 19.32 19.34 20.64 19 22 C14.66795934 17.78646501 10.58096485 13.44447599 6.64453125 8.859375 C5.17674318 7.19983315 3.66148021 5.65641767 2.0625 4.125 C0 2 0 2 0 0 Z " fill="#C70E0F" transform="translate(339,194)"/>
<path d="M0 0 C0.66 0 1.32 0 2 0 C3.375 1.3984375 3.375 1.3984375 5 3.375 C9.37943323 8.54143497 14.17031617 13.25777524 19 18 C18.34 18.33 17.68 18.66 17 19 C11.125 14.25 11.125 14.25 10 12 C9.34 12 8.68 12 8 12 C7.773125 11.4225 7.54625 10.845 7.3125 10.25 C6.06925793 7.79914625 6.06925793 7.79914625 3.4375 6 C0.91933482 3.93381319 0.3380332 3.15497657 0 0 Z " fill="#136E14" transform="translate(260,345)"/>
<path d="M0 0 C4.05385937 1.80473829 6.86602486 4.45788476 10.09765625 7.44140625 C12.01883893 9.2044029 12.01883893 9.2044029 15 10 C16.1875 13.5625 16.1875 13.5625 17 17 C17.66 17 18.32 17 19 17 C18.67 17.99 18.34 18.98 18 20 C16.5 18.625 16.5 18.625 15 17 C15 16.34 15 15.68 15 15 C14.34 15 13.68 15 13 15 C11.484375 13.49609375 11.484375 13.49609375 9.75 11.4375 C9.13511719 10.71433594 8.52023438 9.99117188 7.88671875 9.24609375 C7.26410156 8.50488281 6.64148438 7.76367188 6 7 C4.85526537 5.66572325 3.70953272 4.33230167 2.5625 3 C1.716875 2.01 0.87125 1.02 0 0 Z " fill="#1A7118" transform="translate(230,257)"/>
<path d="M0 0 C4.88049925 3.9419417 9.0580583 8.11950075 13 13 C10.525 12.01 10.525 12.01 8 11 C8.33 11.33 8.66 11.66 9 12 C9 12.66 9 13.32 9 14 C7.68 13.34 6.36 12.68 5 12 C5 10.35 5 8.7 5 7 C4.01 6.67 3.02 6.34 2 6 C2 5.34 2 4.68 2 4 C1.34 4 0.68 4 0 4 C0 2.68 0 1.36 0 0 Z " fill="#D40B0D" transform="translate(295,208)"/>
<path d="M0 0 C6.78376359 5.55035203 12.85522968 11.76442027 19 18 C18.01 18.33 17.02 18.66 16 19 C14 18 14 18 12.6875 15.625 C10.77584138 12.65130881 9.07266067 11.65450959 6 10 C5.34 9.34 4.68 8.68 4 8 C4 7.01 4 6.02 4 5 C3.34 5 2.68 5 2 5 C1.34 3.35 0.68 1.7 0 0 Z " fill="#C90C0E" transform="translate(229,140)"/>
<path d="M0 0 C5.66129431 4.69766975 10.85228904 9.74723372 16 15 C15.01 15.33 14.02 15.66 13 16 C12.34 15.67 11.68 15.34 11 15 C11 14.01 11 13.02 11 12 C9.68 12 8.36 12 7 12 C6.6596875 10.824375 6.6596875 10.824375 6.3125 9.625 C5.21875 6.78125 5.21875 6.78125 2.375 5.6875 C1.59125 5.460625 0.8075 5.23375 0 5 C0 3.35 0 1.7 0 0 Z " fill="#D60C0D" transform="translate(194,104)"/>
<path d="M0 0 C5.25174926 4.38442526 10.13222473 9.00842093 14.9375 13.875 C15.62134766 14.56335938 16.30519531 15.25171875 17.00976562 15.9609375 C18.67551464 17.63833511 20.3388622 19.31803791 22 21 C21.01 21.33 20.02 21.66 19 22 C18.46632813 21.39414063 17.93265625 20.78828125 17.3828125 20.1640625 C12.4051244 14.56631636 7.27005278 9.22476919 1.87109375 4.03125 C0 2 0 2 0 0 Z " fill="#C00E0F" transform="translate(258,170)"/>
<path d="M0 0 C4.91935902 4.11619836 9.52647956 8.40410362 14 13 C11 14 11 14 8 13 C8.33 12.67 8.66 12.34 9 12 C8.34 11.67 7.68 11.34 7 11 C7 10.01 7 9.02 7 8 C5.35 7.67 3.7 7.34 2 7 C1.34 4.69 0.68 2.38 0 0 Z " fill="#10700E" transform="translate(61,312)"/>
<path d="M0 0 C2.9375 1.25 2.9375 1.25 6 3 C6.875 5.1875 6.875 5.1875 7 7 C7.99 7 8.98 7 10 7 C10.4125 7.9075 10.825 8.815 11.25 9.75 C12.89050718 12.79665618 14.44718361 14.71126806 17 17 C16.67 17.66 16.34 18.32 16 19 C3.67211626 6.92370572 3.67211626 6.92370572 0 2 C0 1.34 0 0.68 0 0 Z " fill="#A63709" transform="translate(313,284)"/>
<path d="M0 0 C0.99 0.495 0.99 0.495 2 1 C2 1.66 2 2.32 2 3 C2.99 3.33 3.98 3.66 5 4 C5 4.66 5 5.32 5 6 C5.66 6 6.32 6 7 6 C8.515625 7.50390625 8.515625 7.50390625 10.25 9.5625 C10.86488281 10.28566406 11.47976562 11.00882813 12.11328125 11.75390625 C12.73589844 12.49511719 13.35851563 13.23632812 14 14 C15.14473463 15.33427675 16.29046728 16.66769833 17.4375 18 C18.283125 18.99 19.12875 19.98 20 21 C15.39859233 19.07577497 12.59480369 15.65479294 9.21875 12.09375 C7.18804268 10.17744872 5.55326071 9.06772721 3 8 C3.33 7.01 3.66 6.02 4 5 C3.01 4.67 2.02 4.34 1 4 C0.3125 1.9375 0.3125 1.9375 0 0 Z " fill="#166D15" transform="translate(46,123)"/>
<path d="M0 0 C0.99 0 1.98 0 3 0 C4.0064275 1.66279327 5.00585407 3.32983484 6 5 C7.32520503 5.68268138 8.65812182 6.3507041 10 7 C10.66666667 8.33333333 11.33333333 9.66666667 12 11 C14.0335948 12.26804566 14.0335948 12.26804566 16 13 C15.67 14.32 15.34 15.64 15 17 C13.05611304 15.11036105 11.1199654 13.21376065 9.1875 11.3125 C8.64029297 10.78205078 8.09308594 10.25160156 7.52929688 9.70507812 C4.46882706 6.68170491 2.03242909 3.84378695 0 0 Z " fill="#C40B10" transform="translate(384,242)"/>
<path d="M0 0 C2.475 0.495 2.475 0.495 5 1 C4.7834375 2.299375 4.7834375 2.299375 4.5625 3.625 C5.06582441 7.5077883 5.52672199 7.79637759 8.4375 10.125 C9.07558594 10.58132813 9.71367187 11.03765625 10.37109375 11.5078125 C12.29375538 13.26909965 12.61330179 14.46195258 13 17 C3.13793103 9.03448276 3.13793103 9.03448276 0 4 C0 2.68 0 1.36 0 0 Z " fill="#177315" transform="translate(296,323)"/>
<path d="M0 0 C4.554787 3.80014774 8.95279259 7.65665546 13 12 C13 12.66 13 13.32 13 14 C13.66 14 14.32 14 15 14 C14.67 14.66 14.34 15.32 14 16 C13.34 15.67 12.68 15.34 12 15 C12 14.34 12 13.68 12 13 C11.34 13 10.68 13 10 13 C9.67 12.34 9.34 11.68 9 11 C8.01 10.67 7.02 10.34 6 10 C4.3125 8.5625 4.3125 8.5625 3 7 C3 6.34 3 5.68 3 5 C2.01 5 1.02 5 0 5 C0 3.35 0 1.7 0 0 Z " fill="#186B18" transform="translate(38,288)"/>
<path d="M0 0 C1.65 0 3.3 0 5 0 C5.226875 0.78375 5.45375 1.5675 5.6875 2.375 C6.120625 3.24125 6.55375 4.1075 7 5 C7.825 5.268125 8.65 5.53625 9.5 5.8125 C12 7 12 7 12.76953125 8.89453125 C13.26057552 10.91169873 13.63732784 12.95584785 14 15 C12.9029946 13.9029946 11.80635878 12.80561849 10.7109375 11.70703125 C9.36694043 10.36610267 8.01666607 9.03146541 6.6640625 7.69921875 C5.43816406 6.48685547 5.43816406 6.48685547 4.1875 5.25 C3.39730469 4.47140625 2.60710938 3.6928125 1.79296875 2.890625 C0 1 0 1 0 0 Z " fill="#157212" transform="translate(26,218)"/>
<path d="M0 0 C3.93136089 1.31045363 6.31206827 2.83208046 9 6 C9.33 6.99 9.66 7.98 10 9 C13.00847418 10.22520264 13.00847418 10.22520264 16 11 C15.34 12.32 14.68 13.64 14 15 C8.79814679 10.75358921 4.15632577 6.29331458 0 1 C0 0.67 0 0.34 0 0 Z " fill="#167114" transform="translate(123,320)"/>
<path d="M0 0 C3.375 0.6875 3.375 0.6875 7 2 C8.3125 4.5625 8.3125 4.5625 9 7 C11.49092811 8.24546405 12.41080733 7.7767578 15 7 C14.42655063 9.86724686 14.1385485 10.8614515 12 13 C9.99698146 11.0238076 7.99750133 9.04425526 6 7.0625 C5.42765625 6.49853516 4.8553125 5.93457031 4.265625 5.35351562 C2.82474495 3.92121224 1.41012857 2.46258871 0 1 C0 0.67 0 0.34 0 0 Z " fill="#187317" transform="translate(353,387)"/>
<path d="M0 0 C6.41069287 5.27101414 12.18590512 11.09128152 18 17 C14.38343138 17 12.9680385 15.97869233 10 14 C8 12 8 12 6.6875 9.6875 C5.03713747 6.83752358 5.03713747 6.83752358 2.3125 4.3125 C1.549375 3.549375 0.78625 2.78625 0 2 C0 1.34 0 0.68 0 0 Z " fill="#156814" transform="translate(120,200)"/>
<path d="M0 0 C0.556875 0.598125 1.11375 1.19625 1.6875 1.8125 C3.89304522 4.07695315 3.89304522 4.07695315 6.5625 5.4375 C9.43181629 7.27680531 10.37520964 9.04583572 12 12 C13.58245275 13.75149165 13.58245275 13.75149165 15 15 C14.67 15.66 14.34 16.32 14 17 C12.66070495 15.71451591 11.32871357 14.42141845 10 13.125 C9.2575 12.40570313 8.515 11.68640625 7.75 10.9453125 C6 9 6 9 6 7 C5.38125 6.690625 4.7625 6.38125 4.125 6.0625 C2.75 5.375 1.375 4.6875 0 4 C0 2.68 0 1.36 0 0 Z " fill="#5B590B" transform="translate(171,137)"/>
<path d="M0 0 C4.52615993 3.67832017 8.39424999 7.41086363 12 12 C9.03 11.01 6.06 10.02 3 9 C2.67 7.02 2.34 5.04 2 3 C1.34 3 0.68 3 0 3 C0 2.01 0 1.02 0 0 Z " fill="#D30D0B" transform="translate(467,213)"/>
<path d="M0 0 C0.33 1.65 0.66 3.3 1 5 C1.99 5.33 2.98 5.66 4 6 C4 6.66 4 7.32 4 8 C4.66 8 5.32 8 6 8 C6.66 9.65 7.32 11.3 8 13 C7.01 13.495 7.01 13.495 6 14 C6 13.34 6 12.68 6 12 C5.34 12 4.68 12 4 12 C2.30859375 10.3203125 2.30859375 10.3203125 0.4375 8.125 C-0.49255859 7.04605469 -0.49255859 7.04605469 -1.44140625 5.9453125 C-3 4 -3 4 -4 2 C-1 0 -1 0 0 0 Z " fill="#167413" transform="translate(223,243)"/>
<path d="M0 0 C3.33727786 1.17255709 5.77437487 2.18868404 8 5 C8 5.66 8 6.32 8 7 C8.61875 7.2475 9.2375 7.495 9.875 7.75 C12.35068687 9.20628639 12.95125002 10.37812506 14 13 C11 13 11 13 8.30078125 10.41015625 C7.29625729 9.30185366 6.3004628 8.18559061 5.3125 7.0625 C4.80138672 6.49853516 4.29027344 5.93457031 3.76367188 5.35351562 C0 1.15769985 0 1.15769985 0 0 Z " fill="#1A711A" transform="translate(201,226)"/>
<path d="M0 0 C2.375 -0.1875 2.375 -0.1875 5 0 C5.66 0.99 6.32 1.98 7 3 C6.67 3.66 6.34 4.32 6 5 C6.61875 5.04125 7.2375 5.0825 7.875 5.125 C8.57625 5.41375 9.2775 5.7025 10 6 C11.25 9.0625 11.25 9.0625 12 12 C7.47384007 8.32167983 3.60575001 4.58913637 0 0 Z " fill="#177515" transform="translate(42,235)"/>
<path d="M0 0 C4.13621084 3.3810038 7.81316569 6.66590534 11 11 C8.36 11 5.72 11 3 11 C3.33 10.34 3.66 9.68 4 9 C2.92596703 5.86051902 1.4913562 2.95754184 0 0 Z " fill="#2F6206" transform="translate(429,407)"/>
<path d="M0 0 C4.554787 3.80014774 8.95279259 7.65665546 13 12 C13 12.66 13 13.32 13 14 C13.66 14 14.32 14 15 14 C15 14.66 15 15.32 15 16 C10.39803742 14.63184896 9.34690707 13.06195455 7 9 C5.19608018 7.11905889 3.33047309 5.32928232 1.42578125 3.55078125 C0 2 0 2 0 0 Z " fill="#BD0F12" transform="translate(422,166)"/>
<path d="M0 0 C10.24714829 8.57414449 10.24714829 8.57414449 14 13 C14 13.66 14 14.32 14 15 C13.01 15 12.02 15 11 15 C10.67 14.01 10.34 13.02 10 12 C8.37897032 10.28891311 6.70496537 8.62746694 5 7 C3.2958946 5.37163262 1.61974559 3.71230248 0 2 C0 1.34 0 0.68 0 0 Z " fill="#196A1A" transform="translate(149,403)"/>
<path d="M0 0 C4.13621084 3.3810038 7.81316569 6.66590534 11 11 C8.125 10.6875 8.125 10.6875 5 10 C3 7 3 7 3 4 C2.01 4 1.02 4 0 4 C0 2.68 0 1.36 0 0 Z " fill="#D50B0B" transform="translate(377,293)"/>
<path d="M0 0 C0.99 0 1.98 0 3 0 C3 0.66 3 1.32 3 2 C3.99 2 4.98 2 6 2 C7.02019573 2.9793879 8.02149805 3.97895449 9 5 C9.66 5 10.32 5 11 5 C10.67 6.65 10.34 8.3 10 10 C2.51708428 3.84965831 2.51708428 3.84965831 0 0 Z " fill="#DB0A0C" transform="translate(451,313)"/>
<path d="M0 0 C3.0831351 1.19899698 6.06279492 2.47700477 9 4 C9 5.98 9 7.96 9 10 C7.2925002 8.71937515 5.62626404 7.38232443 4 6 C4 5.34 4 4.68 4 4 C3.34 4 2.68 4 2 4 C1.34 2.68 0.68 1.36 0 0 Z " fill="#147314" transform="translate(311,342)"/>
<path d="M0 0 C4.56048012 3.61251516 8.01665146 6.98797445 11 12 C8.525 11.01 8.525 11.01 6 10 C6 9.01 6 8.02 6 7 C5.01 7 4.02 7 3 7 C3 6.34 3 5.68 3 5 C2.34 5 1.68 5 1 5 C0.67 3.35 0.34 1.7 0 0 Z " fill="#CC0E10" transform="translate(419,336)"/>
<path d="M0 0 C2.97 0.495 2.97 0.495 6 1 C6 2.65 6 4.3 6 6 C7.32 6 8.64 6 10 6 C10 7.65 10 9.3 10 11 C5.67760044 7.65996398 2.82522609 4.67248931 0 0 Z " fill="#D00C0D" transform="translate(400,259)"/>
<path d="M0 0 C2.4375 0.8125 2.4375 0.8125 5 2 C5.33 2.99 5.66 3.98 6 5 C8.50447516 6.21869929 8.50447516 6.21869929 11 7 C10.34 8.32 9.68 9.64 9 11 C7.99403703 10.0479279 6.99538437 9.08812654 6 8.125 C5.443125 7.59132813 4.88625 7.05765625 4.3125 6.5078125 C3 5 3 5 3 3 C2.34 3 1.68 3 1 3 C0.67 2.01 0.34 1.02 0 0 Z " fill="#126F10" transform="translate(193,394)"/>
<path d="M0 0 C2.475 0.495 2.475 0.495 5 1 C5.33 2.32 5.66 3.64 6 5 C6.66 5 7.32 5 8 5 C10.04169485 7.90548882 11 9.40142046 11 13 C9.16365966 11.02354928 7.33083938 9.044035 5.5 7.0625 C4.71302734 6.21655273 4.71302734 6.21655273 3.91015625 5.35351562 C0 1.11328125 0 1.11328125 0 0 Z " fill="#B43109" transform="translate(180,146)"/>
<path d="M0 0 C4.17443363 3.50074982 8.3145494 6.97950843 12 11 C12 11.66 12 12.32 12 13 C8.58142845 11.86047615 7.46199711 10.32413725 5.2734375 7.55859375 C3.90018565 5.8174997 3.90018565 5.8174997 1.6875 3.75 C0 2 0 2 0 0 Z " fill="#1E711E" transform="translate(135,388)"/>
<path d="M0 0 C2.57471193 1.28735597 2.70416657 2.28489811 3.6875 4.9375 C3.95949219 5.64777344 4.23148437 6.35804688 4.51171875 7.08984375 C5 9 5 9 4 11 C1.4375 8.875 1.4375 8.875 -1 6 C-0.8125 2.6875 -0.8125 2.6875 0 0 Z " fill="#0D7A0C" transform="translate(100,290)"/>
<path d="M0 0 C1.32 0.33 2.64 0.66 4 1 C4 1.66 4 2.32 4 3 C4.99 3 5.98 3 7 3 C7.66 5.31 8.32 7.62 9 10 C7.86800647 9.0919838 6.74467637 8.17316174 5.625 7.25 C4.99851562 6.73953125 4.37203125 6.2290625 3.7265625 5.703125 C1.91687682 3.91800519 0.99882545 2.32050356 0 0 Z " fill="#CA0D10" transform="translate(369,226)"/>
<path d="M0 0 C4.13621084 3.3810038 7.81316569 6.66590534 11 11 C8.625 10.75 8.625 10.75 6 10 C4.875 8 4.875 8 4 6 C3.01 5.67 2.02 5.34 1 5 C0.67 3.35 0.34 1.7 0 0 Z " fill="#CA0D0E" transform="translate(411,155)"/>
<path d="M0 0 C3 0 3 0 4.6875 1.3125 C6 3 6 3 6 6 C6.66 6 7.32 6 8 6 C8.66 7.65 9.32 9.3 10 11 C8.8944811 10.06409496 7.79064547 9.12620142 6.6875 8.1875 C6.07261719 7.66542969 5.45773437 7.14335937 4.82421875 6.60546875 C1.48047722 3.6626898 1.48047722 3.6626898 0 2 C0 1.34 0 0.68 0 0 Z " fill="#C90C0E" transform="translate(461,323)"/>
<path d="M0 0 C1.14926266 0.95421808 2.29430541 1.91352045 3.4375 2.875 C4.07558594 3.40867188 4.71367187 3.94234375 5.37109375 4.4921875 C7 6 7 6 8 8 C6.625 9.5 6.625 9.5 5 11 C4.34 11 3.68 11 3 11 C3.33 9.35 3.66 7.7 4 6 C2.68 6 1.36 6 0 6 C0 4.02 0 2.04 0 0 Z " fill="#167804" transform="translate(273,245)"/>
<path d="M0 0 C1.15224028 0.92961422 2.29659176 1.8690125 3.4375 2.8125 C4.07558594 3.33457031 4.71367187 3.85664063 5.37109375 4.39453125 C7 6 7 6 8 9 C6.02 8.34 4.04 7.68 2 7 C2 6.01 2 5.02 2 4 C1.34 4 0.68 4 0 4 C0 2.68 0 1.36 0 0 Z " fill="#D00C11" transform="translate(457,375)"/>
<path d="M0 0 C1.7074998 1.28062485 3.37373596 2.61767557 5 4 C5 4.66 5 5.32 5 6 C5.66 6 6.32 6 7 6 C7 6.66 7 7.32 7 8 C4.03 7.505 4.03 7.505 1 7 C1 6.34 1 5.68 1 5 C0.34 4.67 -0.32 4.34 -1 4 C-0.34 4 0.32 4 1 4 C0.67 2.68 0.34 1.36 0 0 Z " fill="#0E730D" transform="translate(75,326)"/>
<path d="M0 0 C1.15224028 0.92961422 2.29659176 1.8690125 3.4375 2.8125 C4.07558594 3.33457031 4.71367187 3.85664063 5.37109375 4.39453125 C7 6 7 6 8 9 C8.66 9 9.32 9 10 9 C10 9.66 10 10.32 10 11 C8.0625 10.1875 8.0625 10.1875 6 9 C5.67 8.01 5.34 7.02 5 6 C4.34 5.690625 3.68 5.38125 3 5.0625 C2.34 4.711875 1.68 4.36125 1 4 C0.375 1.93359375 0.375 1.93359375 0 0 Z " fill="#196D16" transform="translate(314,400)"/>
<path d="M0 0 C4.13621084 3.3810038 7.81316569 6.66590534 11 11 C8.75 10.875 8.75 10.875 6 10 C3.54747641 6.84675538 1.75694135 3.56806152 0 0 Z " fill="#186916" transform="translate(279,364)"/>
<path d="M0 0 C4.52615993 3.67832017 8.39424999 7.41086363 12 12 C7.96945077 11.48256463 6.34736145 9.56870538 3.75 6.5625 C3.04359375 5.75941406 2.3371875 4.95632813 1.609375 4.12890625 C0 2 0 2 0 0 Z " fill="#136812" transform="translate(93,345)"/>
<path d="M0 0 C1.1055189 0.93590504 2.20935453 1.87379858 3.3125 2.8125 C3.92738281 3.33457031 4.54226562 3.85664063 5.17578125 4.39453125 C6.85424679 5.87172469 8.43882034 7.40039131 10 9 C9.67 9.66 9.34 10.32 9 11 C1.31509847 5.9059081 1.31509847 5.9059081 0 2.125 C0 1.42375 0 0.7225 0 0 Z " fill="#156814" transform="translate(250,334)"/>
<path d="M0 0 C1.98 0 3.96 0 6 0 C6.12375 0.78375 6.2475 1.5675 6.375 2.375 C6.79117993 5.14057822 6.79117993 5.14057822 9 7 C6 7 6 7 4.39453125 5.46875 C3.87246094 4.8190625 3.35039063 4.169375 2.8125 3.5 C2.28269531 2.8503125 1.75289063 2.200625 1.20703125 1.53125 C0.80871094 1.0259375 0.41039063 0.520625 0 0 Z " fill="#157513" transform="translate(110,307)"/>
<path d="M0 0 C3.21524305 1.40844718 5.32183868 3.10344786 7.75 5.625 C8.67039062 6.57246094 8.67039062 6.57246094 9.609375 7.5390625 C10.29773438 8.26222656 10.29773438 8.26222656 11 9 C10.01 9 9.02 9 8 9 C6.33333333 7.33333333 4.66666667 5.66666667 3 4 C2.01 4 1.02 4 0 4 C0 2.68 0 1.36 0 0 Z " fill="#DB0A0D" transform="translate(364,281)"/>
<path d="M0 0 C3.80635497 3.20760251 7.54563567 6.40746109 11 10 C10.67 10.66 10.34 11.32 10 12 C8 10.625 8 10.625 6 9 C6 8.34 6 7.68 6 7 C5.34 7 4.68 7 4 7 C1.875 5.1875 1.875 5.1875 0 3 C0 2.01 0 1.02 0 0 Z " fill="#176A1A" transform="translate(12,261)"/>
<path d="M0 0 C0.99 0.33 1.98 0.66 3 1 C4.04449911 4.13349732 3.93423645 4.98968256 3 8 C2.34 8 1.68 8 1 8 C-0.38938077 6.03852126 -1.7260411 4.03833424 -3 2 C-2.01 2 -1.02 2 0 2 C0 1.34 0 0.68 0 0 Z " fill="#0F7610" transform="translate(140,333)"/>
<path d="M0 0 C2.475 0.495 2.475 0.495 5 1 C5.33 1.99 5.66 2.98 6 4 C6.66 4 7.32 4 8 4 C7.67 5.32 7.34 6.64 7 8 C5.83035398 6.8572081 4.66435444 5.71068285 3.5 4.5625 C2.8503125 3.92441406 2.200625 3.28632813 1.53125 2.62890625 C0 1 0 1 0 0 Z " fill="#D50D0B" transform="translate(415,275)"/>
<path d="M0 0 C1.12894876 0.93274109 2.25300876 1.87140122 3.375 2.8125 C4.00148438 3.33457031 4.62796875 3.85664063 5.2734375 4.39453125 C7 6 7 6 9 9 C8.01 9 7.02 9 6 9 C5.67 9.66 5.34 10.32 5 11 C4.731875 10.05125 4.46375 9.1025 4.1875 8.125 C3.25013412 4.74732727 3.25013412 4.74732727 0 3 C0 2.01 0 1.02 0 0 Z " fill="#157213" transform="translate(23,273)"/>
<path d="M0 0 C2.375 0.1875 2.375 0.1875 5 1 C6.3125 3.5625 6.3125 3.5625 7 6 C7.66 6 8.32 6 9 6 C8.67 6.99 8.34 7.98 8 9 C6.66368764 7.6905332 5.33102075 6.37734515 4 5.0625 C3.2575 4.33160156 2.515 3.60070312 1.75 2.84765625 C0 1 0 1 0 0 Z " fill="#177316" transform="translate(10,201)"/>
<path d="M0 0 C1.1055189 0.93590504 2.20935453 1.87379858 3.3125 2.8125 C3.92738281 3.33457031 4.54226562 3.85664062 5.17578125 4.39453125 C6.85424679 5.87172469 8.43882034 7.40039131 10 9 C9.67 9.66 9.34 10.32 9 11 C8.4225 10.38125 7.845 9.7625 7.25 9.125 C5.18573008 6.9308346 5.18573008 6.9308346 2.8125 6.0625 C1 5 1 5 0.25 2.375 C0.1675 1.59125 0.085 0.8075 0 0 Z " fill="#CA0C0D" transform="translate(210,120)"/>
<path d="M0 0 C2.64752004 2.57784846 4.94432065 4.91648098 7 8 C4.69 7.67 2.38 7.34 0 7 C-1.04449911 3.86650268 -0.93423645 3.01031744 0 0 Z " fill="#107710" transform="translate(25,101)"/>
<path d="M0 0 C2.31 1.98 4.62 3.96 7 6 C5.68 6.33 4.36 6.66 3 7 C2.01 6.34 1.02 5.68 0 5 C-0.1875 2.375 -0.1875 2.375 0 0 Z " fill="#D40B0C" transform="translate(450,368)"/>
<path d="M0 0 C2.31 1.98 4.62 3.96 7 6 C6.01 6.495 6.01 6.495 5 7 C2.96855359 6.06553465 0.96466413 5.06775224 -1 4 C-0.67 2.68 -0.34 1.36 0 0 Z " fill="#D60A08" transform="translate(388,304)"/>
<path d="M0 0 C2.57517635 1.18854293 4.76554442 2.5205702 7.125 4.125 C9.70713977 6.18208926 9.70713977 6.18208926 12 6 C11.34 7.32 10.68 8.64 10 10 C8.33037631 8.52417192 6.6643694 7.04425109 5 5.5625 C4.071875 4.73878906 3.14375 3.91507813 2.1875 3.06640625 C1.465625 2.38449219 0.74375 1.70257813 0 1 C0 0.67 0 0.34 0 0 Z " fill="#B82B08" transform="translate(260,230)"/>
<path d="M0 0 C1.1055189 0.93590504 2.20935453 1.87379858 3.3125 2.8125 C3.92738281 3.33457031 4.54226562 3.85664062 5.17578125 4.39453125 C6.85424679 5.87172469 8.43882034 7.40039131 10 9 C9.67 9.66 9.34 10.32 9 11 C7.6781638 9.92807816 6.36782073 8.84197305 5.0625 7.75 C4.33160156 7.14671875 3.60070312 6.5434375 2.84765625 5.921875 C0.89673666 3.89258866 0.38268221 2.745593 0 0 Z " fill="#1B6E1B" transform="translate(14,90)"/>
<path d="M0 0 C1.98 0.66 3.96 1.32 6 2 C6 2.66 6 3.32 6 4 C6.99 4.33 7.98 4.66 9 5 C8.01 6.485 8.01 6.485 7 8 C5.83035398 6.8572081 4.66435444 5.71068285 3.5 4.5625 C2.8503125 3.92441406 2.200625 3.28632813 1.53125 2.62890625 C0 1 0 1 0 0 Z " fill="#147410" transform="translate(23,392)"/>
<path d="M0 0 C1.1055189 0.93590504 2.20935453 1.87379858 3.3125 2.8125 C3.92738281 3.33457031 4.54226562 3.85664063 5.17578125 4.39453125 C6.85424679 5.87172469 8.43882034 7.40039131 10 9 C9.67 9.66 9.34 10.32 9 11 C8.401875 10.360625 7.80375 9.72125 7.1875 9.0625 C5.09189663 6.79689611 5.09189663 6.79689611 2 6 C0.8125 2.9375 0.8125 2.9375 0 0 Z " fill="#146715" transform="translate(159,240)"/>
<path d="M0 0 C1.14926266 0.95421808 2.29430541 1.91352045 3.4375 2.875 C4.07558594 3.40867188 4.71367187 3.94234375 5.37109375 4.4921875 C7 6 7 6 8 8 C6.865625 7.67 5.73125 7.34 4.5625 7 C1.45623361 5.95495727 1.45623361 5.95495727 0 6 C0 4.02 0 2.04 0 0 Z " fill="#D50C10" transform="translate(315,229)"/>
<path d="M0 0 C0.928125 0.2784375 0.928125 0.2784375 1.875 0.5625 C4.04160178 1.23686176 4.04160178 1.23686176 6 0 C7 3 7 3 6.0625 5.1875 C5.5365625 6.0846875 5.5365625 6.0846875 5 7 C3.5 5.625 3.5 5.625 2 4 C2 3.34 2 2.68 2 2 C1.34 2 0.68 2 0 2 C0 1.34 0 0.68 0 0 Z " fill="#13710F" transform="translate(366,400)"/>
<path d="M0 0 C1.14926266 0.95421808 2.29430541 1.91352045 3.4375 2.875 C4.07558594 3.40867187 4.71367187 3.94234375 5.37109375 4.4921875 C7 6 7 6 8 8 C6.35 8 4.7 8 3 8 C3 7.01 3 6.02 3 5 C2.34 5 1.68 5 1 5 C0.67 3.35 0.34 1.7 0 0 Z " fill="#1A721A" transform="translate(127,380)"/>
<path d="M0 0 C1.14926266 0.95421808 2.29430541 1.91352045 3.4375 2.875 C4.07558594 3.40867187 4.71367187 3.94234375 5.37109375 4.4921875 C7 6 7 6 8 8 C5.69 7.34 3.38 6.68 1 6 C0.67 4.02 0.34 2.04 0 0 Z " fill="#1C7503" transform="translate(345,320)"/>
<path d="M0 0 C1.98 1.65 3.96 3.3 6 5 C5.67 5.99 5.34 6.98 5 8 C4.34 7.67 3.68 7.34 3 7 C3 6.34 3 5.68 3 5 C2.01 5 1.02 5 0 5 C0 3.35 0 1.7 0 0 Z " fill="#137111" transform="translate(38,288)"/>
<path d="M0 0 C0 2.31 0 4.62 0 7 C-1.98 5.35 -3.96 3.7 -6 2 C-2.25 0 -2.25 0 0 0 Z " fill="#D70A0C" transform="translate(384,235)"/>
<path d="M0 0 C2.31 1.98 4.62 3.96 7 6 C6.01 6.495 6.01 6.495 5 7 C2.56810832 6.14883791 0.30308715 5.15154357 -2 4 C-1.34 2.68 -0.68 1.36 0 0 Z " fill="#117112" transform="translate(66,144)"/>
<path d="M0 0 C1.14926266 0.95421808 2.29430541 1.91352045 3.4375 2.875 C4.07558594 3.40867187 4.71367188 3.94234375 5.37109375 4.4921875 C7 6 7 6 8 8 C5.6875 7.8125 5.6875 7.8125 3 7 C0 2.96551724 0 2.96551724 0 0 Z " fill="#177117" transform="translate(32,109)"/>
<path d="M0 0 C1.12894876 0.93274109 2.25300876 1.87140122 3.375 2.8125 C4.00148438 3.33457031 4.62796875 3.85664063 5.2734375 4.39453125 C7 6 7 6 9 9 C7.66666667 8.33333333 6.33333333 7.66666667 5 7 C3.9171875 6.5978125 3.9171875 6.5978125 2.8125 6.1875 C1 5 1 5 0.25 2.375 C0.1675 1.59125 0.085 0.8075 0 0 Z " fill="#116E0F" transform="translate(82,334)"/>
<path d="M0 0 C2.31 1.98 4.62 3.96 7 6 C4.3333581 7.33332095 2.83319697 6.67102033 0 6 C0 4.02 0 2.04 0 0 Z " fill="#2C6E04" transform="translate(313,286)"/>
<path d="M0 0 C4.2742558 1.5830577 6.26531794 4.50568404 9 8 C8.67 8.66 8.34 9.32 8 10 C6.99403703 9.0479279 5.99538437 8.08812654 5 7.125 C4.443125 6.59132812 3.88625 6.05765625 3.3125 5.5078125 C2 4 2 4 2 2 C1.34 2 0.68 2 0 2 C0 1.34 0 0.68 0 0 Z " fill="#20731E" transform="translate(192,216)"/>
<path d="M0 0 C1.14926266 0.95421808 2.29430541 1.91352045 3.4375 2.875 C4.07558594 3.40867188 4.71367187 3.94234375 5.37109375 4.4921875 C7 6 7 6 8 8 C6.35 7.67 4.7 7.34 3 7 C3 6.34 3 5.68 3 5 C2.34 5 1.68 5 1 5 C0.67 3.35 0.34 1.7 0 0 Z " fill="#CA0E11" transform="translate(287,200)"/>
<path d="M0 0 C2.97 0.495 2.97 0.495 6 1 C6.66 3.31 7.32 5.62 8 8 C6.85073734 7.04578192 5.70569459 6.08647955 4.5625 5.125 C3.92441406 4.59132813 3.28632813 4.05765625 2.62890625 3.5078125 C1 2 1 2 0 0 Z " fill="#167313" transform="translate(185,386)"/>
<path d="M0 0 C2.97 0.495 2.97 0.495 6 1 C6.33 2.98 6.66 4.96 7 7 C5.83040013 6.02433888 4.66438823 5.044375 3.5 4.0625 C2.8503125 3.51722656 2.200625 2.97195313 1.53125 2.41015625 C1.0259375 1.94480469 0.520625 1.47945313 0 1 C0 0.67 0 0.34 0 0 Z " fill="#0F710F" transform="translate(15,383)"/>
<path d="M0 0 C3 0 3 0 4.5625 1.5 C5.036875 1.995 5.51125 2.49 6 3 C6.66 3 7.32 3 8 3 C8 4.65 8 6.3 8 8 C6.85073734 7.04578192 5.70569459 6.08647955 4.5625 5.125 C3.92441406 4.59132813 3.28632813 4.05765625 2.62890625 3.5078125 C1 2 1 2 0 0 Z " fill="#DB1203" transform="translate(364,337)"/>
<path d="M0 0 C2.97 0.495 2.97 0.495 6 1 C6 1.99 6 2.98 6 4 C6.66 4.33 7.32 4.66 8 5 C7.67 5.99 7.34 6.98 7 8 C5.83035398 6.8572081 4.66435444 5.71068285 3.5 4.5625 C2.8503125 3.92441406 2.200625 3.28632813 1.53125 2.62890625 C0 1 0 1 0 0 Z " fill="#1E721C" transform="translate(263,292)"/>
<path d="M0 0 C3.7952131 1.49097658 5.61042731 3.75700849 8 7 C7.67 7.66 7.34 8.32 7 9 C5.62437146 7.71034824 4.29233607 6.37310707 3 5 C3 4.34 3 3.68 3 3 C2.34 3 1.68 3 1 3 C0.67 2.01 0.34 1.02 0 0 Z " fill="#196F1A" transform="translate(54,247)"/>
<path d="M0 0 C2.31 1.98 4.62 3.96 7 6 C5.68 6.33 4.36 6.66 3 7 C2.67 6.01 2.34 5.02 2 4 C1.34 4 0.68 4 0 4 C0 2.68 0 1.36 0 0 Z " fill="#CE0C0A" transform="translate(323,237)"/>
<path d="M0 0 C2.64752004 2.57784846 4.94432065 4.91648098 7 8 C4.03 7.505 4.03 7.505 1 7 C0.67 4.69 0.34 2.38 0 0 Z " fill="#C80A0D" transform="translate(280,192)"/>
<path d="M0 0 C1.14926266 0.95421808 2.29430541 1.91352045 3.4375 2.875 C4.07558594 3.40867188 4.71367188 3.94234375 5.37109375 4.4921875 C7 6 7 6 8 8 C7.01 8 6.02 8 5 8 C5 7.34 5 6.68 5 6 C4.01 6 3.02 6 2 6 C1.67 5.01 1.34 4.02 1 3 C0.34 2.34 -0.32 1.68 -1 1 C-0.67 0.67 -0.34 0.34 0 0 Z " fill="#146C13" transform="translate(94,173)"/>
<path d="M0 0 C1.485 0.99 1.485 0.99 3 2 C3 2.66 3 3.32 3 4 C3.99 4.33 4.98 4.66 6 5 C5.67 6.32 5.34 7.64 5 9 C4.16094435 7.87926138 3.32892169 6.75325453 2.5 5.625 C2.0359375 4.99851562 1.571875 4.37203125 1.09375 3.7265625 C0 2 0 2 0 0 Z " fill="#0A6B0B" transform="translate(225,308)"/>
<path d="M0 0 C2.64752004 2.57784846 4.94432065 4.91648098 7 8 C5.35 7.67 3.7 7.34 2 7 C1.34 4.69 0.68 2.38 0 0 Z " fill="#D10E11" transform="translate(308,221)"/>
<path d="M0 0 C0.99 0.33 1.98 0.66 3 1 C3 1.66 3 2.32 3 3 C3.99 3.33 4.98 3.66 6 4 C7.1875 6.5625 7.1875 6.5625 8 9 C6.84775972 8.07038578 5.70340824 7.1309875 4.5625 6.1875 C3.60537109 5.40439453 3.60537109 5.40439453 2.62890625 4.60546875 C1 3 1 3 0 0 Z " fill="#1E6F1C" transform="translate(174,197)"/>
<path d="M0 0 C2.31 1.98 4.62 3.96 7 6 C6.01 6.33 5.02 6.66 4 7 C1.23609263 4.59660228 0.95934081 3.83736322 0 0 Z " fill="#176815" transform="translate(324,411)"/>
<path d="M0 0 C1.98 0.66 3.96 1.32 6 2 C6.33 3.65 6.66 5.3 7 7 C5.83040013 6.02433888 4.66438823 5.044375 3.5 4.0625 C2.8503125 3.51722656 2.200625 2.97195313 1.53125 2.41015625 C1.0259375 1.94480469 0.520625 1.47945313 0 1 C0 0.67 0 0.34 0 0 Z " fill="#197216" transform="translate(178,379)"/>
<path d="M0 0 C1.14926266 0.95421808 2.29430541 1.91352045 3.4375 2.875 C4.07558594 3.40867187 4.71367188 3.94234375 5.37109375 4.4921875 C7 6 7 6 8 8 C6.68 7.67 5.36 7.34 4 7 C4 6.34 4 5.68 4 5 C3.01 4.67 2.02 4.34 1 4 C0.3125 1.9375 0.3125 1.9375 0 0 Z " fill="#106C14" transform="translate(119,372)"/>
<path d="M0 0 C-0.66666667 2 -1.33333333 4 -2 6 C-3.32 4.02 -4.64 2.04 -6 0 C-3.50907189 -1.24546405 -2.58919267 -0.7767578 0 0 Z " fill="#127410" transform="translate(111,301)"/>
<path d="M0 0 C0.66 0 1.32 0 2 0 C2 0.66 2 1.32 2 2 C3.32 2.66 4.64 3.32 6 4 C5.67 5.32 5.34 6.64 5 8 C2.20127563 5.47211993 0.54226981 3.79588866 0 0 Z " fill="#D50C10" transform="translate(394,251)"/>
<path d="M0 0 C1.14926266 0.95421808 2.29430541 1.91352045 3.4375 2.875 C4.07558594 3.40867188 4.71367187 3.94234375 5.37109375 4.4921875 C7 6 7 6 8 8 C5.6875 7.8125 5.6875 7.8125 3 7 C0 2.96551724 0 2.96551724 0 0 Z " fill="#267003" transform="translate(249,220)"/>
<path d="M0 0 C1.14926266 0.95421808 2.29430541 1.91352045 3.4375 2.875 C4.07558594 3.40867188 4.71367188 3.94234375 5.37109375 4.4921875 C7 6 7 6 8 8 C5.04987143 6.63029745 2.4347778 5.17390875 0 3 C0 2.01 0 1.02 0 0 Z " fill="#116C11" transform="translate(112,192)"/>
<path d="M0 0 C0.66 0 1.32 0 2 0 C2.33 0.66 2.66 1.32 3 2 C3.99 2.33 4.98 2.66 6 3 C6.6875 5.0625 6.6875 5.0625 7 7 C4.0625 5.75 4.0625 5.75 1 4 C0.125 1.8125 0.125 1.8125 0 0 Z " fill="#D31904" transform="translate(425,400)"/>
<path d="M0 0 C0.33 0.99 0.66 1.98 1 3 C0.01 3.99 -0.98 4.98 -2 6 C-2.66 4.68 -3.32 3.36 -4 2 C-2.68 1.34 -1.36 0.68 0 0 Z " fill="#0E780F" transform="translate(367,394)"/>
<path d="M0 0 C1.98 1.65 3.96 3.3 6 5 C4.68 5.33 3.36 5.66 2 6 C0 3 0 3 0 0 Z " fill="#1A7504" transform="translate(369,345)"/>
<path d="M0 0 C1.98 1.65 3.96 3.3 6 5 C5.01 5.33 4.02 5.66 3 6 C2.01 5.34 1.02 4.68 0 4 C0 2.68 0 1.36 0 0 Z " fill="#CF0D0D" transform="translate(411,328)"/>
<path d="M0 0 C-0.33 1.65 -0.66 3.3 -1 5 C-2.65 3.35 -4.3 1.7 -6 0 C-2.25 -1.125 -2.25 -1.125 0 0 Z " fill="#D5080A" transform="translate(416,270)"/>
</svg>
