<?xml version="1.0" encoding="UTF-8"?>
<svg version="1.1" xmlns="http://www.w3.org/2000/svg" width="1878" height="1229">
<path d="M0 0 C0.31710938 0.85078125 0.63421875 1.7015625 0.9609375 2.578125 C9.0661367 23.62477486 20.36480344 42.76493517 32 62 C33.54336994 64.56147763 35.08443508 67.12433467 36.625 69.6875 C36.96217041 70.24719482 37.29934082 70.80688965 37.64672852 71.38354492 C41.5898073 77.94677431 45.43199949 84.56920691 49.28125 91.18774414 C52.5896756 96.87498054 55.91163804 102.55367217 59.2578125 108.21875 C70.45809219 127.19328051 81.46825271 146.25956021 91.07763672 166.10205078 C91.99986373 167.99971961 92.93903147 169.88836545 93.87890625 171.77734375 C118.67755962 222.27745279 131.4407117 278.28702903 143.56640625 332.87109375 C143.78361832 333.84860092 144.00083038 334.82610809 144.22462463 335.83323669 C144.82469377 338.55378883 145.41594104 341.27596804 146 344 C146.19641083 344.91492218 146.39282166 345.82984436 146.59518433 346.77249146 C146.77896637 347.65460297 146.96274841 348.53671448 147.15209961 349.44555664 C147.31576523 350.2268544 147.47943085 351.00815216 147.64805603 351.81312561 C148 354 148 354 148 358 C142.42645278 357.42835413 137.98183139 355.40075587 133 353 C132.16130371 352.59773193 131.32260742 352.19546387 130.45849609 351.78100586 C113.01202695 343.23746027 97.99311773 331.35706693 84 318 C83.14664063 317.19949219 82.29328125 316.39898437 81.4140625 315.57421875 C74.52397377 308.93408592 68.72220647 301.63944059 63 294 C61.81664062 292.43378906 61.81664062 292.43378906 60.609375 290.8359375 C47.82252956 273.43397234 37.01038039 254.55297346 26 236 C26.57530153 242.3064699 28.02230941 247.89044094 30.0625 253.875 C30.37413086 254.79410156 30.68576172 255.71320313 31.00683594 256.66015625 C46.57482922 301.58272392 75.24295026 346.64401316 113 376 C113.57991699 376.45101074 114.15983398 376.90202148 114.75732422 377.36669922 C141.85317298 398.32924608 171.68075576 415.10247637 201.59765625 431.65234375 C216.51741275 439.9066228 231.32430064 448.31870965 246 457 C246.8667334 457.51127441 247.7334668 458.02254883 248.62646484 458.54931641 C278.28849511 476.07299423 307.6475871 494.70792866 334 517 C334.99773437 517.825 335.99546875 518.65 337.0234375 519.5 C351.22237318 531.28795944 365.10818422 543.85898311 377 558 C377.4444043 558.51997559 377.88880859 559.03995117 378.34667969 559.57568359 C434.29058405 625.25932999 451.13172995 712.15006578 444.40234375 796.48144531 C436.87478601 884.61184829 400.49791469 970.32604981 324.35546875 1050.265625 C322.52171588 1051.76620674 320.67773926 1053.25437361 318.82421875 1054.73046875 C316.94482353 1056.24074347 315.09255104 1057.7854172 313.26953125 1059.36328125 C261.85399422 1103.82885603 195.37588389 1119.65969212 128.8125 1115.25 C78.71165969 1111.47796248 32.51224816 1094.08521576 -7 1063 C-8.02996094 1062.19691406 -9.05992188 1061.39382813 -10.12109375 1060.56640625 C-26.01161165 1047.65148598 -40.97518675 1032.57360425 -53 1016 C-53.74636719 1015.03707031 -54.49273437 1014.07414063 -55.26171875 1013.08203125 C-110.04745769 942.23345785 -134.32115779 846.48641168 -134.1875 758.125 C-134.18689575 757.37364777 -134.1862915 756.62229553 -134.18566895 755.84817505 C-134.01713597 677.7711622 -108.08841308 606.74508859 -52.47460938 551.29150391 C-47.5903596 546.5062592 -42.42326736 542.16569812 -37 538 C-36.43941895 537.5683252 -35.87883789 537.13665039 -35.30126953 536.69189453 C-26.82141579 530.20242211 -18.11572397 524.3176017 -8.83105469 519.04101562 C-7.08035798 518.04568619 -5.34065444 517.03109478 -3.6015625 516.015625 C14.68637396 505.74150339 34.61431125 498.73961076 55 494 C55.70350586 493.83419434 56.40701172 493.66838867 57.13183594 493.49755859 C97.87052295 484.16954147 144.98076002 487.41798945 181 510 C201.54884617 523.79554465 216.09571606 543.06370949 221.32421875 567.40234375 C222.11497308 571.61208214 222.69489514 575.72853189 223 580 C217.64643143 579.47870971 213.97583843 577.60805267 209.4375 574.9375 C208.38804199 574.3345813 208.38804199 574.3345813 207.31738281 573.71948242 C202.90674141 571.16898545 198.57052311 568.51217548 194.25 565.8125 C166.2669605 548.47817873 132.9648899 544.64194361 101 552 C73.54502626 558.56294193 50.95953034 572.37930137 30 591 C29.23300781 591.64582031 28.46601563 592.29164063 27.67578125 592.95703125 C22.96065276 596.93570158 18.92785398 601.24842388 15 606 C14.38511719 606.72703125 13.77023438 607.4540625 13.13671875 608.203125 C-4.99347486 630.14828921 -14.76183392 655.0655158 -23 682 C-23.25539551 682.82902832 -23.51079102 683.65805664 -23.77392578 684.51220703 C-29.00947269 701.93054614 -30.52739572 720.86774916 -31 739 C-31.03287109 740.24040039 -31.03287109 740.24040039 -31.06640625 741.50585938 C-32.80497968 820.61095062 -10.67027386 907.27245381 43.921875 966.67578125 C45.34801883 968.27081053 46.7213953 969.91413451 48.046875 971.59375 C50.98003636 975.20740479 54.45683614 978.00148778 58 981 C58.83144531 981.7425 59.66289062 982.485 60.51953125 983.25 C92.99191143 1011.58953179 131.65156551 1021.57646178 174 1020 C210.29291331 1017.34582828 242.26988079 994.89288153 265.52978516 968.24755859 C268.53818299 964.62779405 271.2948845 960.85260061 274 957 C274.40911621 956.41927734 274.81823242 955.83855469 275.23974609 955.24023438 C285.22463152 940.96625614 293.5589168 925.73482619 301 910 C301.37205566 909.21963379 301.74411133 908.43926758 302.12744141 907.63525391 C334.47599799 838.96692801 345.78745981 752.95674445 334 678 C333.82839355 676.90333008 333.65678711 675.80666016 333.47998047 674.67675781 C326.40045152 631.18731906 310.75069315 588.59200986 283 554 C282.195625 552.99195313 281.39125 551.98390625 280.5625 550.9453125 C269.72599834 537.63142741 257.56291245 525.4973196 243.74755859 515.29443359 C241.95980024 513.97022365 240.19232179 512.62188155 238.42578125 511.26953125 C195.0525971 478.37674836 142.68359714 459.96686734 91.95922852 441.80517578 C-19.84819445 401.7701741 -19.84819445 401.7701741 -61 368 C-61.62197266 367.49227051 -62.24394531 366.98454102 -62.88476562 366.46142578 C-76.17872949 355.53637047 -87.72638907 343.81168415 -98 330 C-98.95326172 328.73929687 -98.95326172 328.73929687 -99.92578125 327.453125 C-128.3314159 288.53414052 -135.55208329 240.11385897 -128.54345703 193.25976562 C-120.59562065 145.58702917 -98.72362363 100.53532886 -70 62 C-69.58508301 61.44086914 -69.17016602 60.88173828 -68.74267578 60.30566406 C-63.80790712 53.68423284 -58.67074286 47.33242213 -53.0703125 41.25390625 C-51.22684843 39.24696517 -49.45220907 37.20087758 -47.6875 35.125 C-16.8736167 0 -16.8736167 0 0 0 Z M24 233 C25 235 25 235 25 235 Z " fill="#ABCD21" transform="translate(134,1)"/>
<path d="M0 0 C2.86717129 0.00315154 5.73329749 -0.02037778 8.6003418 -0.0456543 C55.25854872 -0.20575782 101.83293915 14.68767386 136.69995117 46.31567383 C137.60229492 47.10973633 138.50463867 47.90379883 139.43432617 48.72192383 C148.37802118 56.6357388 156.34728132 64.89283479 163.69995117 74.31567383 C164.13210938 74.86610352 164.56426758 75.4165332 165.00952148 75.98364258 C206.22263043 128.87429428 211.69995117 194.62536314 211.69995117 259.31567383 C98.83995117 259.31567383 -14.02004883 259.31567383 -130.30004883 259.31567383 C-124.22612158 306.38860999 -114.86005434 355.10290736 -74.97583008 385.95239258 C-53.12785547 402.22176657 -27.76272825 412.39356926 -0.30004883 413.31567383 C0.82014648 413.35563477 1.9403418 413.3955957 3.09448242 413.43676758 C32.03747493 413.95198315 61.3961796 406.52075347 83.69995117 387.31567383 C84.55459961 386.60926758 85.40924805 385.90286133 86.28979492 385.17504883 C105.16635238 369.0034526 117.0736926 346.27326786 125.27807617 323.13208008 C126.69995117 320.31567383 126.69995117 320.31567383 128.3263855 319.59036255 C131.65522826 319.20512123 134.8020957 319.64986646 138.09887695 320.10424805 C138.83751984 320.20003143 139.57616272 320.29581482 140.33718872 320.39450073 C142.77423819 320.71247574 145.20970021 321.04121251 147.64526367 321.37036133 C149.33862155 321.59414826 151.03205332 321.81737666 152.72555542 322.04006958 C156.27185396 322.50799962 159.81743437 322.98094729 163.36254883 323.45776367 C167.91251593 324.0695736 172.46371017 324.67158977 177.01542854 325.27021599 C180.510721 325.73052716 184.00550093 326.19463144 187.50011826 326.66003799 C189.17858378 326.88336981 190.85716525 327.105832 192.53586197 327.32741928 C194.87768673 327.63739394 197.21881992 327.95213502 199.55981445 328.26831055 C200.25699585 328.3597937 200.95417725 328.45127686 201.67248535 328.54553223 C206.47095858 329.20117753 206.47095858 329.20117753 208.69995117 330.31567383 C207.4837966 337.40626388 205.6341409 344.01125863 203.13745117 350.75317383 C202.78666504 351.70401855 202.43587891 352.65486328 202.07446289 353.63452148 C192.73272507 378.44812556 179.57011107 400.55027655 161.18432617 419.76391602 C160.17934793 420.81451498 159.17947691 421.87001917 158.18432617 422.92993164 C130.85875671 451.96334919 93.4492846 468.14859496 54.69995117 475.31567383 C53.81082031 475.48083496 52.92168945 475.64599609 52.00561523 475.81616211 C-4.14683418 485.62104087 -70.26897777 477.81566388 -118.17114258 445.52270508 C-119.20368164 444.79438477 -120.2362207 444.06606445 -121.30004883 443.31567383 C-122.83338867 442.23866211 -122.83338867 442.23866211 -124.39770508 441.13989258 C-131.27769598 436.14191209 -137.62149306 430.66265377 -143.75708008 424.79125977 C-144.79384039 423.79977569 -145.83560843 422.81350406 -146.88208008 421.83227539 C-159.81754507 409.67577089 -170.57779534 395.78895152 -179.30004883 380.31567383 C-179.68225586 379.64938965 -180.06446289 378.98310547 -180.45825195 378.29663086 C-193.85944264 354.75959508 -201.78779912 329.2032885 -206.55004883 302.62817383 C-206.70127197 301.78762451 -206.85249512 300.9470752 -207.00830078 300.08105469 C-209.95533135 282.43048822 -210.64780902 264.86285802 -210.61572266 246.99194336 C-210.61257695 243.34824243 -210.63607076 239.70536817 -210.66137695 236.06176758 C-210.84073884 169.68669596 -192.74176345 104.39118131 -145.30004883 56.31567383 C-131.40635324 42.41726692 -115.5800603 31.57542681 -98.30004883 22.31567383 C-97.68403809 21.98229004 -97.06802734 21.64890625 -96.43334961 21.30541992 C-78.07742664 11.55269803 -56.84094149 5.25060694 -36.30004883 2.31567383 C-34.52488892 2.05403442 -34.52488892 2.05403442 -32.71386719 1.78710938 C-21.80784986 0.28362802 -10.99987643 -0.02514151 0 0 Z M-85.30004883 99.31567383 C-86.04641602 99.99887695 -86.7927832 100.68208008 -87.56176758 101.38598633 C-113.37496806 125.80266113 -123.18343843 161.03295942 -126.30004883 195.31567383 C-42.15004883 195.31567383 41.99995117 195.31567383 128.69995117 195.31567383 C124.62106683 164.04422724 119.23699799 131.72980705 97.69995117 107.31567383 C96.68674805 106.10524414 96.68674805 106.10524414 95.65307617 104.87036133 C75.70122331 81.64174431 47.96361447 67.97892139 17.68823242 64.59692383 C-21.44288872 61.83743243 -56.72307454 71.95577681 -85.30004883 99.31567383 Z " fill="#322B2A" transform="translate(1666.300048828125,616.684326171875)"/>
<path d="M0 0 C27.72 0 55.44 0 84 0 C90.34630667 17.30810911 96.68580625 34.60451124 102.82275391 51.98583984 C103.47694305 53.8373465 103.47694305 53.8373465 104.14434814 55.72625732 C104.36594856 56.35349449 104.58754898 56.98073166 104.81586456 57.62697601 C106.97507399 63.73571035 109.14026752 69.84232915 111.3046875 75.94921875 C111.54591717 76.62998222 111.78714684 77.3107457 112.03568649 78.01213837 C116.86687786 91.64455194 121.73791305 105.26252376 126.625 118.875 C127.4039033 121.04507985 128.18279325 123.2151645 128.96166992 125.38525391 C129.34758804 126.46047302 129.73350616 127.53569214 130.13111877 128.64349365 C130.51710739 129.71891418 130.90309601 130.79433472 131.30078125 131.90234375 C131.68616562 132.97599182 132.07154999 134.04963989 132.46861267 135.15582275 C136.92715266 147.57926695 141.37223893 160.00751225 145.8125 172.4375 C146.2220694 173.58404053 146.63163879 174.73058105 147.05361938 175.91186523 C151.92417707 189.54976118 156.78212701 203.19209553 161.625 216.83984375 C161.86006382 217.50225193 162.09512764 218.16466011 162.33731461 218.84714127 C164.70236276 225.51231845 167.06606903 232.17796831 169.42644691 238.84480095 C170.57292098 242.08288762 171.719883 245.32080123 172.8671875 248.55859375 C173.08969051 249.18652706 173.31219353 249.81446037 173.54143906 250.46142197 C176.3971539 258.51745506 179.2787881 266.56344845 182.1953125 274.59765625 C192.65524893 303.45210766 202.23802688 332.58306546 211 362 C213.78130593 354.97402129 215.96212712 347.77834468 218.181427 340.56048584 C227.96919645 308.83669152 239.50813749 277.74157717 250.9921875 246.6015625 C256.2822007 232.25674592 261.52182889 217.8936601 266.75977325 203.52977753 C273.8170157 184.17809615 280.88894051 164.83198695 288 145.5 C294.34326355 128.25411151 300.65972118 110.99856091 306.95959473 93.73678589 C308.18290153 90.38490329 309.40660448 87.03316549 310.63043404 83.68147373 C315.16676468 71.25749171 319.69974603 58.832325 324.2157135 46.40092468 C325.97627625 41.55473822 327.73996472 36.70968983 329.50369263 31.86465454 C330.32701997 29.60063036 331.14904592 27.33613245 331.96969604 25.07113647 C333.09638324 21.96161263 334.22739908 18.85369546 335.359375 15.74609375 C335.68641922 14.8397821 336.01346344 13.93347046 336.35041809 12.99969482 C336.65727036 12.15989075 336.96412262 11.32008667 337.28027344 10.45483398 C337.54177185 9.73440414 337.80327026 9.0139743 338.07269287 8.27171326 C339.22620384 5.44584675 340.63500117 2.72999766 342 0 C368.4 0 394.8 0 422 0 C421.30226462 3.48867688 420.63126141 6.27659162 419.41210938 9.53515625 C419.08598663 10.41237335 418.75986389 11.28959045 418.42385864 12.19338989 C418.06742279 13.14019623 417.71098694 14.08700256 417.34375 15.0625 C416.78287186 16.56573318 416.78287186 16.56573318 416.21066284 18.09933472 C414.97755427 21.40098346 413.7388831 24.70051414 412.5 28 C411.63468471 30.3125716 410.76961616 32.62523553 409.90478516 34.93798828 C402.69131763 54.2138123 395.42492393 73.46972988 388.13592529 92.71710205 C384.6069677 102.03577183 381.08587953 111.35740828 377.56533813 120.67926025 C375.78994762 125.38003499 374.01410153 130.08063761 372.23828125 134.78125 C371.88704697 135.7109964 371.53581268 136.6407428 371.17393494 137.59866333 C369.07931821 143.14324232 366.98449074 148.68774163 364.88949585 154.23217773 C356.9214996 175.31963044 348.95791132 196.40873923 341 217.5 C332.69791052 239.50345384 324.38928053 261.50442896 316.07666016 283.50390625 C312.90585727 291.89559205 309.73572107 300.28752972 306.56552124 308.67944336 C304.79370687 313.36963874 303.0218514 318.0598186 301.25 322.75 C300.54166647 324.62499993 299.83333314 326.49999993 299.125 328.375 C294.87499999 339.62500004 294.87499999 339.62500004 293.81256104 342.43733215 C293.10401871 344.31288955 292.39548193 346.18844904 291.68695068 348.06401062 C289.91936025 352.74299961 288.15167446 357.42195253 286.38378906 362.10083008 C283.15755791 370.63964742 279.93211754 379.17876006 276.71008301 387.71916199 C269.66770282 406.38582363 262.6181273 425.04956496 255.5 443.6875 C255.22192505 444.41649506 254.9438501 445.14549011 254.65734863 445.89657593 C253.8872966 447.91456455 253.11580897 449.93199725 252.34375 451.94921875 C251.69696289 453.64050903 251.69696289 453.64050903 251.03710938 455.3659668 C250 458 250 458 249 460 C223.92 460 198.84 460 173 460 C159.220632 424.40329933 159.220632 424.40329933 154.84375 412.7421875 C154.332932 411.38472585 153.82197601 410.02731611 153.31089783 408.66995239 C152.24858823 405.84782211 151.18711943 403.02537796 150.12643433 400.20263672 C148.44657122 395.73217384 146.76458351 391.26251201 145.08227539 386.79296875 C143.35991706 382.21679925 141.63763289 377.64060205 139.91603088 373.06414795 C134.76542121 359.37273746 129.6035274 345.68560092 124.4375 332 C123.6226361 329.84098453 122.80777604 327.68196762 121.99291992 325.52294922 C115.03604496 307.09134692 108.07416941 288.6616336 101.11064148 270.23254395 C96.8843814 259.04767052 92.65906049 247.86244231 88.43365479 236.67724609 C87.36853579 233.85774531 86.3034109 231.03824676 85.23828125 228.21875 C84.887052 227.28901367 84.53582275 226.35927734 84.1739502 225.40136719 C82.07932304 219.85678005 79.98449474 214.31226896 77.88949585 208.76782227 C69.49532121 186.5524804 61.10663376 164.33507618 52.7230835 142.11572266 C46.23206966 124.91246858 39.73798431 107.71037897 33.23803711 90.51049805 C32.54931138 88.68799018 31.86059067 86.86548042 31.171875 85.04296875 C30.83209122 84.14382248 30.49230743 83.24467621 30.14222717 82.31828308 C27.97533075 76.58342205 25.81037729 70.84783092 23.646698 65.11175537 C22.1518375 61.14888071 20.65643816 57.1862095 19.16094971 53.22357178 C18.43445398 51.29823901 17.70817279 49.37282527 16.9821167 47.44732666 C13.59047301 38.45365613 10.19493722 29.4622806 6.7109375 20.50390625 C6.23390381 19.27567139 5.75687012 18.04743652 5.26538086 16.78198242 C4.4116209 14.59146574 3.55342285 12.40267085 2.68969727 10.21606445 C2.32674561 9.28624756 1.96379395 8.35643066 1.58984375 7.3984375 C1.27909912 6.61130371 0.96835449 5.82416992 0.64819336 5.01318359 C0 3 0 3 0 0 Z " fill="#322B2A" transform="translate(992,626)"/>
<path d="M0 0 C25.74 0 51.48 0 78 0 C78 209.22 78 418.44 78 634 C52.26 634 26.52 634 0 634 C0 424.78 0 215.56 0 0 Z " fill="#322B2A" transform="translate(646,452)"/>
<path d="M0 0 C25.74 0 51.48 0 78 0 C78 151.8 78 303.6 78 460 C52.26 460 26.52 460 0 460 C0 308.2 0 156.4 0 0 Z " fill="#322B2A" transform="translate(844,626)"/>
<path d="M0 0 C25.74 0 51.48 0 78 0 C78 29.7 78 59.4 78 90 C52.26 90 26.52 90 0 90 C0 60.3 0 30.6 0 0 Z " fill="#322B2A" transform="translate(844,452)"/>
<path d="M0 0 C7.26 -0.061875 14.52 -0.12375 22 -0.1875 C24.27648437 -0.21481201 26.55296875 -0.24212402 28.8984375 -0.27026367 C30.72395295 -0.27903411 32.54947432 -0.28667673 34.375 -0.29296875 C35.77105469 -0.3159906 35.77105469 -0.3159906 37.1953125 -0.33947754 C44.32201679 -0.34230859 49.49144769 1.00650437 55.75 4.5625 C59.90613255 9.06497693 62.17073734 14.98945892 62.4375 21.125 C61.73540249 27.34357791 60.51001107 31.96891099 55.8125 36.3125 C52.14740958 39.18662005 48.41983842 40.60426155 44 42 C44.67482422 42.57041016 44.67482422 42.57041016 45.36328125 43.15234375 C52.21927194 49.43127711 56.8381728 57.03738322 61.68505859 64.8828125 C62.5923542 66.34364939 63.51281492 67.79636325 64.44384766 69.2421875 C64.90194824 69.95632813 65.36004883 70.67046875 65.83203125 71.40625 C66.45621948 72.37014648 66.45621948 72.37014648 67.09301758 73.35351562 C68 75 68 75 68 77 C62.97351807 78.18874463 58.98261022 78.50090923 54 77 C49.6132161 72.68025131 47.05064859 66.73244745 44.25390625 61.32177734 C42.46948493 58.01767946 40.41837066 55.08532974 38.1875 52.0625 C37.52105469 51.14597656 36.85460937 50.22945312 36.16796875 49.28515625 C31.19494471 44.0433201 25.95624202 43.51668396 19.125 43.3125 C15.103125 43.1578125 15.103125 43.1578125 11 43 C11 54.22 11 65.44 11 77 C7.37 77 3.74 77 0 77 C0 51.59 0 26.18 0 0 Z M11 9 C11 16.92 11 24.84 11 33 C14.98431666 33.09241972 18.96586315 33.1718666 22.95068359 33.21972656 C24.96347627 33.24946045 26.97592134 33.30031729 28.98828125 33.3515625 C36.42918573 33.42634546 41.81057882 33.33866289 48 29 C50.48872255 24.76085353 50.83526784 20.82216486 50 16 C46.90940959 11.72771326 43.98766129 10.35986123 39 9 C35.71654042 8.72779911 35.71654042 8.72779911 32.2890625 8.8046875 C31.04511719 8.81113281 29.80117188 8.81757812 28.51953125 8.82421875 C26.59173828 8.84935547 26.59173828 8.84935547 24.625 8.875 C22.66240234 8.88853516 22.66240234 8.88853516 20.66015625 8.90234375 C17.44002542 8.92584835 14.21998905 8.96171744 11 9 Z " fill="#322B2A" transform="translate(985,1151)"/>
<path d="M0 0 C3.00986938 2.76387044 4.74661932 5.36606667 5.3359375 9.45703125 C5.42899251 15.3660243 4.86033613 19.52616479 1 24.125 C-1.19161956 26.32638178 -3.41851609 28.38917461 -6 30.125 C-6.66 30.125 -7.32 30.125 -8 30.125 C-2.64011 39.33840615 -2.64011 39.33840615 5 46.125 C5.66 43.155 6.32 40.185 7 37.125 C8.44375 37.269375 9.8875 37.41375 11.375 37.5625 C12.18710938 37.64371094 12.99921875 37.72492188 13.8359375 37.80859375 C16 38.125 16 38.125 18 39.125 C17.57086481 40.83545375 17.13124751 42.54327882 16.6875 44.25 C16.44386719 45.20132812 16.20023438 46.15265625 15.94921875 47.1328125 C15 50.125 15 50.125 12 56.125 C15.63 59.755 19.26 63.385 23 67.125 C18.5 73.875 18.5 73.875 15 75.125 C14.45730469 74.64289063 13.91460938 74.16078125 13.35546875 73.6640625 C12.28232422 72.71660156 12.28232422 72.71660156 11.1875 71.75 C10.47980469 71.12351562 9.77210937 70.49703125 9.04296875 69.8515625 C6.91196181 67.984401 6.91196181 67.984401 4 66.125 C3.13375 66.888125 2.2675 67.65125 1.375 68.4375 C-5.68065007 74.29783994 -13.01705668 75.92835265 -22 75.125 C-28.74439311 73.71389963 -34.16794928 71.16430311 -38.21875 65.38671875 C-41.55049315 59.82984713 -42.52020568 55.57555048 -42 49.125 C-40.05756331 41.4294865 -36.51960873 36.607231 -30 32.125 C-28.68163705 31.42919733 -27.35208914 30.75275567 -26 30.125 C-27.10846329 27.07672596 -28.28652724 24.70363641 -30.125 22 C-32.85175735 17.25916052 -33.00487928 12.43106712 -32 7.125 C-29.38399798 1.66902318 -25.74753742 -1.83941383 -20 -3.875 C-13.04034978 -5.93126029 -5.60534525 -4.62236195 0 0 Z M-21 8.125 C-22.25329784 10.97789698 -22.25329784 10.97789698 -22 14.125 C-19.87441798 18.061263 -17.26783673 21.09058018 -14 24.125 C-9.11350356 21.07040299 -9.11350356 21.07040299 -5.5 16.6875 C-4.85906337 13.40269979 -4.97892172 11.32437861 -6 8.125 C-8.42482089 5.56546684 -10.03172693 4.31865461 -13.5 3.625 C-16.96827307 4.31865461 -18.57517911 5.56546684 -21 8.125 Z M-23.9375 40.3125 C-24.83339844 41.08980469 -25.72929688 41.86710937 -26.65234375 42.66796875 C-29.02580703 45.15200936 -30.07072304 46.8483587 -31 50.125 C-30.78674793 55.13642355 -29.05178033 58.20128244 -26 62.125 C-22.27167721 65.44257537 -19.55098267 65.74728144 -14.6796875 65.6171875 C-10.05805991 64.76831713 -6.40182861 62.30985549 -3 59.125 C-2.67 58.135 -2.34 57.145 -2 56.125 C-3.63917777 53.90340376 -5.28040909 51.91343811 -7.125 49.875 C-8.14787903 48.71143058 -9.16873744 47.54608154 -10.1875 46.37890625 C-10.67734375 45.81961426 -11.1671875 45.26032227 -11.671875 44.68408203 C-13.27415945 42.80316503 -14.72218291 40.84574977 -16.125 38.8125 C-16.74375 37.925625 -17.3625 37.03875 -18 36.125 C-20.18418094 36.125 -22.43432876 38.9904857 -23.9375 40.3125 Z " fill="#312A29" transform="translate(1196,1153.875)"/>
<path d="M0 0 C8.98243919 8.58638807 12.24804473 19.4741494 12.625 31.6875 C12.3833736 42.9749045 9.44431804 52.65131134 1.75 60.9375 C-6.04674323 68.16374982 -14.26352753 71.45870036 -25 71.75 C-36.12792672 71.29609773 -45.5098357 67.2259043 -53.125 59 C-61.20639033 48.76954189 -62.47090501 36.59019705 -61.34375 23.9609375 C-59.85416935 13.73102332 -55.68893818 5.08326688 -47.5703125 -1.5078125 C-33.23090701 -11.5019436 -13.61961921 -11.30090718 0 0 Z M-43.8125 9.3125 C-50.02594761 19.89837371 -51.86609885 31.3726485 -49.09375 43.44140625 C-46.06116693 51.45084944 -41.5107123 56.79011552 -33.6953125 60.39453125 C-27.1434489 62.48082928 -19.81338631 62.56797025 -13.4375 59.8125 C-7.3584465 56.16249748 -2.44075817 50.42603078 -0.3125 43.62890625 C2.15384538 32.20279056 1.64879228 21.41660756 -4.625 11.3125 C-8.9107192 5.47505488 -13.736182 2.77656579 -20.8125 1.3125 C-29.11297167 0.49606016 -38.02842231 3.03264422 -43.8125 9.3125 Z " fill="#312A29" transform="translate(1392.8125,1157.6875)"/>
<path d="M0 0 C18.48 0 36.96 0 56 0 C56 3.3 56 6.6 56 10 C41.15 10 26.3 10 11 10 C11 17.26 11 24.52 11 32 C24.86 32 38.72 32 53 32 C53 35.3 53 38.6 53 42 C39.14 42 25.28 42 11 42 C11 50.25 11 58.5 11 67 C26.51 67 42.02 67 58 67 C58 70.3 58 73.6 58 77 C38.86 77 19.72 77 0 77 C0 51.59 0 26.18 0 0 Z " fill="#322B2A" transform="translate(1617,1151)"/>
<path d="M0 0 C18.48 0 36.96 0 56 0 C56 3.3 56 6.6 56 10 C41.15 10 26.3 10 11 10 C11 17.26 11 24.52 11 32 C24.86 32 38.72 32 53 32 C53 35.3 53 38.6 53 42 C39.14 42 25.28 42 11 42 C11 50.25 11 58.5 11 67 C26.51 67 42.02 67 58 67 C58 70.3 58 73.6 58 77 C38.86 77 19.72 77 0 77 C0 51.59 0 26.18 0 0 Z " fill="#322B2A" transform="translate(716,1151)"/>
<path d="M0 0 C18.15 0 36.3 0 55 0 C55 3.3 55 6.6 55 10 C40.48 10 25.96 10 11 10 C11 17.26 11 24.52 11 32 C24.86 32 38.72 32 53 32 C53 35.3 53 38.6 53 42 C39.14 42 25.28 42 11 42 C11 50.25 11 58.5 11 67 C26.18 67 41.36 67 57 67 C57 70.3 57 73.6 57 77 C38.19 77 19.38 77 0 77 C0 51.59 0 26.18 0 0 Z " fill="#322B2A" transform="translate(1547,1151)"/>
<path d="M0 0 C18.15 0 36.3 0 55 0 C55 3.3 55 6.6 55 10 C40.48 10 25.96 10 11 10 C11 17.26 11 24.52 11 32 C24.53 32 38.06 32 52 32 C52 35.3 52 38.6 52 42 C38.47 42 24.94 42 11 42 C11 50.25 11 58.5 11 67 C26.18 67 41.36 67 57 67 C57 70.3 57 73.6 57 77 C38.19 77 19.38 77 0 77 C0 51.59 0 26.18 0 0 Z " fill="#322B2A" transform="translate(915,1151)"/>
<path d="M0 0 C4.29 0 8.58 0 13 0 C18.30545207 12.75527471 23.59644573 25.51647691 28.87561035 38.28265381 C29.94276448 40.86167719 31.01164841 43.43997623 32.08105469 46.01806641 C33.63181004 49.75827427 35.17532655 53.50138348 36.71279907 57.24707031 C37.27720731 58.61901837 37.8440653 59.98996128 38.41342163 61.35986328 C39.2001966 63.25419568 39.97814657 65.15191666 40.75390625 67.05078125 C41.19033447 68.10950439 41.6267627 69.16822754 42.07641602 70.2590332 C43 73 43 73 43 77 C39.04 77 35.08 77 31 77 C29.66035453 73.73162389 28.3280741 70.46057452 27 67.1875 C26.6184375 66.25873047 26.236875 65.32996094 25.84375 64.37304688 C25.30234375 63.0340332 25.30234375 63.0340332 24.75 61.66796875 C24.41484375 60.84578857 24.0796875 60.0236084 23.734375 59.17651367 C23 57 23 57 23 54 C12.44 54 1.88 54 -9 54 C-9.99 57.3 -10.98 60.6 -12 64 C-12.86608688 66.38600836 -13.75779732 68.76305265 -14.6875 71.125 C-15.12449219 72.24132813 -15.56148437 73.35765625 -16.01171875 74.5078125 C-16.33785156 75.33023437 -16.66398438 76.15265625 -17 77 C-20.96 77 -24.92 77 -29 77 C-26.7848178 70.19491483 -24.34859559 63.50188023 -21.796875 56.81640625 C-21.3959967 55.76202866 -20.99511841 54.70765106 -20.58209229 53.62132263 C-19.73576786 51.39638954 -18.88856376 49.17179089 -18.04052734 46.94750977 C-16.76597737 43.6044081 -15.49406631 40.26031252 -14.22265625 36.91601562 C-9.53316037 24.59046872 -4.80332937 12.28164352 0 0 Z M6 11 C5.62488281 12.14855469 5.24976563 13.29710937 4.86328125 14.48046875 C2.07955354 22.94680281 -0.79547122 31.32079624 -4.1171875 39.59375 C-5.11481126 41.88575629 -5.11481126 41.88575629 -5 44 C2.59 44 10.18 44 18 44 C17.22462204 39.34773225 16.34443295 35.83963188 14.71484375 31.5078125 C14.26689453 30.30898437 13.81894531 29.11015625 13.35742188 27.875 C12.88423277 26.62495526 12.410924 25.3749558 11.9375 24.125 C11.45978804 22.85174939 10.98256966 21.57831348 10.50585938 20.3046875 C9.34207756 17.20126933 8.17331032 14.09982553 7 11 C6.67 11 6.34 11 6 11 Z " fill="#312B29" transform="translate(807,1151)"/>
<path d="M0 0 C4.13698142 5.08257717 6.88864801 9.19324003 8.1875 15.6875 C4.5575 16.3475 0.9275 17.0075 -2.8125 17.6875 C-3.534375 16.285 -4.25625 14.8825 -5 13.4375 C-7.63299491 8.71294294 -10.30187829 6.12214098 -15 3.4375 C-22.1127227 1.54077395 -29.34331674 2.09833345 -35.8125 5.6875 C-41.25553378 10.01718596 -44.34793182 15.95048637 -45.8125 22.6875 C-46.83464921 34.46547859 -46.28864811 44.33382811 -40.0625 54.5625 C-35.15882717 59.19374656 -30.57053643 60.94004665 -23.8125 61.1875 C-17.04791486 60.93980686 -12.41247322 59.21525174 -7.5625 54.5 C-5.20381167 50.70925091 -3.53433796 46.80761226 -1.8125 42.6875 C1.8175 43.3475 5.4475 44.0075 9.1875 44.6875 C7.77352778 53.59552499 4.51085081 60.26349782 -2.5625 66.0625 C-11.85237685 72.39650694 -22.72648241 72.9396658 -33.5625 71 C-41.8932373 68.81957237 -47.8928179 63.62262439 -52.8125 56.6875 C-59.46801833 45.20102911 -60.46672363 31.31074088 -57.6875 18.5 C-54.99884339 9.03342765 -50.49017702 1.59561874 -41.8125 -3.3125 C-27.67789351 -10.31228124 -12.56868465 -10.33425182 0 0 Z " fill="#312A29" transform="translate(1313.8125,1157.3125)"/>
<path d="M0 0 C17.49 0 34.98 0 53 0 C53 3.3 53 6.6 53 10 C39.47 10 25.94 10 12 10 C12 17.26 12 24.52 12 32 C23.55 32 35.1 32 47 32 C47 35.3 47 38.6 47 42 C35.45 42 23.9 42 12 42 C12.03960073 53.14443325 12.03960073 53.14443325 12.09008789 64.28881836 C12.09300714 65.68082605 12.09555567 67.07283459 12.09765625 68.46484375 C12.10277222 69.19384888 12.10788818 69.922854 12.11315918 70.6739502 C12.11347011 72.44970076 12.06228515 74.22534208 12 76 C11.505 76.495 11.505 76.495 11 77 C7.37 77 3.74 77 0 77 C0 51.59 0 26.18 0 0 Z " fill="#302928" transform="translate(1417,1151)"/>
<path d="M0 0 C17.16 0 34.32 0 52 0 C52 3.3 52 6.6 52 10 C38.47 10 24.94 10 11 10 C11 17.26 11 24.52 11 32 C22.88 32 34.76 32 47 32 C47 35.3 47 38.6 47 42 C35.12 42 23.24 42 11 42 C11 53.55 11 65.1 11 77 C7.37 77 3.74 77 0 77 C0 51.59 0 26.18 0 0 Z " fill="#322B2A" transform="translate(1482,1151)"/>
<path d="M0 0 C4.47036427 -0.60501171 8.54488187 -0.80286581 13 0 C16.35015131 2.6814071 17.96609332 6.27262595 20 10 C21.87698008 12.96357887 23.81929643 15.88373152 25.75 18.8125 C34 31.53628964 34 31.53628964 34 34 C34.66 34 35.32 34 36 34 C36.24967529 33.31591064 36.49935059 32.63182129 36.7565918 31.92700195 C39.11083232 26.3850837 42.37445323 21.3308824 45.55444336 16.23266602 C46.3918119 14.8713937 47.21102605 13.49878271 48.01147461 12.11547852 C50.62906751 7.60277628 53.17173506 3.57918593 57 0 C61.57037966 -1.14275267 65.40578408 -0.92191171 70 0 C68.74218914 3.41198411 67.31057859 6.23878805 65.19921875 9.1953125 C64.64000732 9.98252686 64.0807959 10.76974121 63.50463867 11.58081055 C62.60515503 12.84018433 62.60515503 12.84018433 61.6875 14.125 C61.07173096 15.01678955 60.45596191 15.9085791 59.8215332 16.82739258 C56.79354322 21.19472294 53.73211963 25.38869592 50.21875 29.37890625 C38.16509245 43.70896631 39.25036882 59.14151561 40 77 C36.37 77 32.74 77 29 77 C29.11633789 76.22027832 29.23267578 75.44055664 29.35253906 74.63720703 C32.76526098 46.71823733 20.69570785 29.48534709 4.24308777 7.78709412 C3.68583511 7.05176956 3.12858246 6.31644501 2.55444336 5.55883789 C2.06004257 4.91668839 1.56564178 4.27453888 1.05625916 3.6129303 C0 2 0 2 0 0 Z " fill="#312B2A" transform="translate(1052,1151)"/>
<path d="M0 0 C20.13 0 40.26 0 61 0 C61 3.3 61 6.6 61 10 C52.75 10 44.5 10 36 10 C36 32.11 36 54.22 36 77 C32.37 77 28.74 77 25 77 C25 54.89 25 32.78 25 10 C16.75 10 8.5 10 0 10 C0 6.7 0 3.4 0 0 Z " fill="#322B2A" transform="translate(844,1151)"/>
</svg>
